<?xml version="1.0" encoding="utf-8"?>
<!-- Generator: Adobe Illustrator 19.0.0, SVG Export Plug-In . SVG Version: 6.00 Build 0)  -->
<svg version="1.1" xmlns="http://www.w3.org/2000/svg" xmlns:xlink="http://www.w3.org/1999/xlink" x="0px" y="0px"
	 viewBox="0 0 612 792" style="enable-background:new 0 0 612 792;" xml:space="preserve">
<style type="text/css">
	.st0{display:none;}
	.st1{fill:#C2B59B;}
	.st2{fill:#F8B898;}
	.st3{fill:#FCD4C7;}
	.st4{fill:#DD8E6B;}
	.st5{fill:#201A55;}
	.st6{fill:#6C7767;}
	.st7{fill:#FCC9B4;}
	.st8{fill:#A982BB;}
	.st9{fill:#FCD0C6;}
	.st10{fill:#FDDCD4;}
	.st11{fill:#EE7B6C;}
	.st12{fill:#CC8569;}
	.st13{fill:#E56C63;}
	.st14{fill:#9265A8;}
	.st15{fill:#9AABD8;}
	.st16{fill:#F1F2F2;}
	.st17{fill:#FFFFFF;}
	.st18{fill:#B6C834;}
	.st19{fill:#9AABD8;stroke:#FFFFFF;stroke-width:0.5;stroke-miterlimit:10;}
	.st20{fill:#3B783A;stroke:#FFFFFF;stroke-width:2;stroke-miterlimit:10;}
	.st21{fill-rule:evenodd;clip-rule:evenodd;fill:#FFFFFF;}
	.st22{fill:#FBBBA0;}
	.st23{fill:#FBEDB0;}
	.st24{fill:#78296A;}
	.st25{fill:#F7931E;}
	.st26{fill:#FEE5D0;}
	.st27{fill:#FED2A9;}
	.st28{fill:#CFA173;}
	.st29{fill:#FFFAF5;}
	.st30{fill:#FEDABE;}
	.st31{fill:#081633;}
	.st32{fill:#FEEC3B;}
	.st33{fill:#D9DCE2;}
	.st34{fill:#FCFCFC;}
	.st35{fill:#F4F4F4;}
	.st36{fill:#E5D7D1;}
	.st37{fill:#FEEEE9;}
	.st38{fill:#FDE2DC;}
	.st39{fill:#F7A6A1;}
	.st40{fill:#754C29;}
</style>
<g id="Layer_2" class="st0">
</g>
<g id="Layer_3">
</g>
<g id="Layer_1">
	<circle class="st1" cx="314.4" cy="394.8" r="219.2"/>
	<path class="st2" d="M396.4,413.5c0,0-2.9,11.8-3.3,12.6C392.8,426.8,407.3,420.8,396.4,413.5z"/>
	<polygon class="st2" points="399.3,365.2 402.7,362.4 405,370.1 406,385.8 399.1,402.1 	"/>
	<path class="st2" d="M248.9,428.6c-0.2,2.7-2.8,1.1-8.2,1c-5.4-0.1-8.8-9.6-7.9-11.9c0.9-2.3,4-7,1.5-11.2
		c-2.5-4.2-8.1-21.6-8.4-30.8c-0.3-9.2,8.1-7.7,8.1-7.7L248.9,428.6z"/>
	<polygon class="st3" points="243.9,424.4 235.9,419.2 237.6,423.4 	"/>
	<path class="st4" d="M238.9,406.9c0,0-4.4-6-3.9-7.2c0.5-1.2,3.6,0.5,3.6,0.5L238.9,406.9z"/>
	<path class="st4" d="M237.1,379.5c0,0-3.8-6.6-7.3-6c-3.5,0.6,3.6,20.2,3.6,20.2L237.1,379.5z"/>
	<path class="st5" d="M240,396.2c0,0-8.5-25.1-8.1-30.1c0.5-5-11.3-27-11.3-27l1.6-4.6l-4.6-2.6l4.9-4.2l-6.1-2.4l4.5-3.1l-5.3-5.9
		l4.7-1.3l-5.1-5.8l2.1-2.4l-1.9-6.5l5.6,0.6c0,0-7.5-12.3-7.3-22.7c0.1-10.4,10.9-25.5,17.5-36.5c6.5-11,14.8-13.6,29.8-24.9
		c15-11.3,50.7-27.7,77.8-20.2c27,7.4,47.8,14.7,63.6,38.3c5.2,7.7,11.6,32.2,9.9,35.8c-1.8,3.6-6.1,10.7-6.1,10.7l6.9,0.9l-6.1,8.4
		l8.2,2.9l-9.4,4.6l4.6,2.8l-5,4.2l7.6,5.3l-4.5,6.1l-2.7,15.3c0,0-5.3,27.9-6.4,33.2c-1,5.3-29.9-97.8-29.9-97.8l-72.8,6.6
		l-49.2,26.1L240,396.2z"/>
	<path class="st6" d="M381.3,453.7c0,0,10.6,1.7,12.1,2.2c1.5,0.5,15.8,34.2,18.4,36.2c2.6,2,16.5,28.7,17.2,30
		c0.7,1.3-33.4-5.7-37.8-4.4c-4.4,1.3-14.1-25.9-14.1-25.9l2.9-38L381.3,453.7z"/>
	<path class="st5" d="M247.5,471.8c0,0-7-2.1-7.9-0.6c-0.9,1.5-8.6,9.6-8.6,10.7c0,1,2.1,10.7,2.1,10.7l8.6-11.7L247.5,471.8z"/>
	<path class="st7" d="M243.3,517.4l26.6,45.5l47-0.1l51.2-19.5l23.7-26.1c0,0-13.2-22.3-14.7-25.4c-1.5-3-3.6-41.7-3.6-41.7
		l-58.8,17.4L243.3,517.4z"/>
	<path class="st2" d="M334.3,482.3l-20.4,19.8l7.2,8.1l-40.2-9.4l7.5,29l17.2,17.3l-39.8-11.1l-22.5-18.6c0,0-14.5-34.2-12-34
		c2.6,0.3,18.3-14.5,18.3-14.5l7.5-31.8l36.4,31.1L334.3,482.3z"/>
	<path class="st2" d="M380.8,454.3c0,0-5,50.4-5.9,58.2c-0.8,7.7-26.7,33.9-31.8,35.4c-5.1,1.5,25.3-42.4,25.3-42.4l-3.6-12.7
		c0,0-17.2,19.3-38.7,17.2c17.6-10.1,24.7-27.2,24.7-27.2L380.8,454.3z"/>
	<path class="st8" d="M310.1,499.7l8.6-6.2c0,0-6.9,4.5-19.8-2.4c-13-7-41.3-41.5-41.3-41.5l-7.1-14.2l-3.2,26.9l-2.4,39.6
		l24.9,24.6l-16.6-29.4l3.1-32.2c0,0,15.7,17.8,23.7,26c8,8.1,34.4,19,36.3,17.5C307.3,505.5,310.1,499.7,310.1,499.7z"/>
	<path class="st9" d="M383.7,446.3L383.7,446.3L383.7,446.3c2.8-5.3,4.8-9.7,4.8-9.7l5-14.7c0,0,1.9-4,3.3-13.7
		c1.5-9.8,1-39.1,1-39.1l-8.2-8.7l-28.1-0.8l-23,11.1l2,29.6l2.1,34.8l14.1,18.4c0,0-5.8,27.7-1.9,27.1c4.5-1.7,12.4-11.7,18.6-18.1
		C376.6,459,380.6,452.1,383.7,446.3z M362.2,409.6l-0.6-11.1l5.9-11.8l17.9,5l5.3,19.6l-6.6,11.4l-10.3,1.1L362.2,409.6z"/>
	<polygon class="st10" points="295.6,436.6 323.8,449.4 350.2,442.6 365,452.6 358.2,469.7 324.2,480.2 297.8,471.8 274.6,454.7 
		284.7,442.3 	"/>
	<path class="st7" d="M359.2,465.8l-11.6,6.7l-20.2,6.7c0,0-17-6.2-25.8-7.7c-8.7-1.5-21.8-14.1-21.8-14.1c0.4-0.6,5.7-13.2,13.8-17
		c4-1.9,27.1,11.9,31.9,11.2c17.2-2.5,25.6-7.6,25.6-7.6l-9.3-12.5l-36.4-1.5l-5.5-9l-10.8,1.7l-8.4,10.8l-13.6,7.1l-10.2-3.5
		l0.8,9.5c0,0,6.4,10,10.3,13.5c3.8,3.5,22.7,18.6,31.3,22.4c14,8.2,24.3,6.6,33.4,6c6.8-0.5,16.2-5.1,21.7-8.3
		c2.8-1.6,4.7-3.1,4.7-3.1V465.8z"/>
	<path class="st5" d="M265.7,457.8c0,0,32.1,29.8,52,30.4c16.5,0.5,33.9-6.2,37.1-8.1c3.2-1.9,4.9-3.4,6.1-4.4c-1,1.2-4.7,4.2-6,4.9
		c-1.3,0.7-8.6,5-13.4,6.4c-9,2.7-15.5,3.1-20.1,2.9c-12.6-0.6-27.8-7.3-35.6-13.2C277.3,470.4,265.7,457.8,265.7,457.8z"/>
	<polygon class="st10" points="366.5,384.4 358.3,401.2 361,414.6 376.5,428.7 387.9,425.2 393.7,407.4 387.7,386.5 	"/>
	<polygon class="st10" points="261.2,370.5 250,385.5 254.6,413.4 265.6,418.4 283.6,413.4 295.5,398.5 294.5,377.2 	"/>
	<path class="st9" d="M255.4,372.6l-6.1,18.5l10.7,14.5l-1.8-20.8l7-9.3l14.9-0.1l13.1,5.3l-1.1,17.2l-10,11.8l-10.4,1.6l-16.1,1.4
		l-6.9,6.6l-0.4,10.5c0,0,5.9,14.5,14,23.9c8.1,9.4-1.8-12.2-1.8-12.2l10.4,4.3c0,0,14.3-2.9,18.9-20.3
		c4.6-17.4,21.4-28.4,21.4-28.4l-4.6-28.8l-9.9-13l-50.8-6.8L255.4,372.6z"/>
	<polygon class="st2" points="305.1,400.1 296.6,408.5 286,416.5 279.5,427.4 299.6,427.6 316.1,422.4 328.2,424.5 341.5,422.5 
		354.3,430.2 370.5,426.4 355.3,414.3 343,403.2 344.3,399.6 322,394.4 	"/>
	<path class="st11" d="M298.1,428.3c0.3,0.4,9.8-1.5,9.8-1.5l9.7-2.2l20.4,1l7.6,3.5l-6.9,5.6l-17.2,1.5l-15.2-3.4L298.1,428.3z"/>
	<path class="st12" d="M305.2,432.5c0,0,5.8-0.2,7.4,0.8c1.6,1,6.7,1.6,10,1.6c3.3,0,11.3,0.7,14,0c2.7-0.7,4.4-3.6,5.7-4.3
		c1.3-0.7-2.3-3.9-2.3-3.9l5.7-0.6l5.2,2.9l5.8-1.5c0,0-6.2,3.2-7.1,3.2c-0.8,0-3,5-13.2,5.8c-10.2,0.8-22.1,0.8-23.8-0.3
		C310.9,435.2,308.5,433.1,305.2,432.5z"/>
	<path class="st11" d="M317.4,419.3c0,0,6.3,2.3,7.5,2.6c1.2,0.3,4.1-0.8,7.5-0.9c3.3-0.1,10.7,4.8,10.7,4.8s-16.6,1.2-17.6,1.1
		c-1-0.1-12.5-2-13.4-2.2c-0.9-0.2-1.4-3.5-1.4-3.5L317.4,419.3z"/>
	<path class="st13" d="M356.8,427.5l-4.9-0.9c0,0-5.9-5.3-8-6c-2.1-0.7-13,0.3-13,0.3s9.6,3.6,9.2,4.5c-0.4,0.9,4.1,0.1,8.1,2.6
		C352.2,430.6,356.1,427,356.8,427.5z"/>
	<path class="st7" d="M350.9,322.6l-13.3,11.9l-1.2,9.6l8.8,13.2c0,0,24,1,24,0.2c0-0.8,24.1-6.5,24.1-6.5l-3.6-12.9l-20.8-13.9
		L350.9,322.6z"/>
	<path class="st13" d="M295.3,427.2c0,0,5.6-1.5,5.8-2c0.3-0.5,3.7-4.3,6.7-4.8c3-0.4,8-1.8,10.2-0.9c-2.9,1-5.4,1.8-5.2,2.6
		c0.3,0.8-1.1,3.5-1.1,3.5S297.4,429.7,295.3,427.2z"/>
	<polygon class="st7" points="322.8,324.2 268.7,325.2 254,311.6 266.6,283.5 303.8,271.2 336.2,276.2 366,290.9 373,319.2 
		331.9,325.8 	"/>
	<path class="st2" d="M263.1,296.8l24.2-18.3l45.6-1l26.5,15.7l2.5,5.8l-15.8,0.9l-12.8,4.9l19.3-2.1l8.2,18.4l28.3,19.3l-9.4,13.8
		l2.2,10.2l-2.1,7.6l12.6-0.2l5.9,27.3c0,0-0.5-31.4-0.6-37.7c-0.1-6.3-5.3-42.1-5.5-45c-0.2-2.9-6.9-30-12.6-35.1
		c-5.7-5.1-7.1-13.6-21.9-19.6c-14.8-6-77.2,6.2-77.2,6.2L264.3,287L263.1,296.8z"/>
	<polygon class="st8" points="357.8,326.1 372.2,328.7 381.8,335.9 389.1,340.3 393.9,355.4 395.7,368.6 392.8,345 391.5,329.6 
		387.4,317.6 373.7,309.2 365.7,308.6 370.4,311.5 365.7,313.1 357.7,315.3 352.2,318.2 	"/>
	<path class="st4" d="M343.3,351.6c0,0,2.7,0.9,3.3,0.9"/>
	<path class="st7" d="M308.6,337.5l-4.8-7.6l-26.9-4.4c0,0-14.1,14.6-14.4,14.9c-0.4,0.3-0.7,20.1-0.7,20.1l15,4.6l21.7-1l13.1-9
		l3.5-11L308.6,337.5z"/>
	<path class="st8" d="M277.6,325.1l-12.4,16.1l0.2,6.1l10-0.6l-7.3,9l3.9,6.9l5.5,5.9l-12.1-0.5l-14.1-9.9l8.5,16.1
		c0,0-6.8,10.1-6.3,9.4c0.5-0.7,6.5,15.3,6.5,15.3l0.6,16.4l-8.9,4.1l-1.6,15.3c0,0-7.5-21.7-7.8-23.7c-0.3-2-2.8-22.2-2.2-39.2
		c0.6-17-0.3-24.5,0.7-32.4c1-7.9,4.3-32,5.6-34.8c1.3-2.8-1.1-10.3,10.5-23.5c11.6-13.2,24.6-19.3,33.3-22.8
		c8.7-3.5-28.7,28.9-28.7,28.9l-7.1,34L277.6,325.1z"/>
	<polygon class="st14" points="260.9,325.8 249.6,333.3 247.8,347.4 255.7,343.8 265.9,335.9 271.2,325.1 	"/>
	<path class="st15" d="M362.2,264.3c0,0-31.2-1.4-32.9-1.5c-1.7-0.1-19.4,4.4-19.4,4.4l-21.3,3.6l-21,16.5l-8.7,24.8l13.7,5l1.6,8.3
		l-24.5,8l5.6-37.1l11.7-20.8l26.1-18c0,0,12.5-2.3,31.4-1.5C343.3,256.6,353.8,257.9,362.2,264.3z"/>
	<polygon class="st7" points="343.8,364 349.8,377 369.1,385.3 378.2,382 362.3,364.3 367.9,364.6 381.7,366.6 386.5,362.6 
		380.4,352 362.1,351.4 340.8,351 	"/>
	<polygon class="st2" points="343.3,351.1 347.1,345.5 354.8,341.3 353.3,343.5 358.6,345.9 350.6,347.1 344.9,350.8 	"/>
	<path class="st16" d="M268.6,356c0,0,7.1-5,11.2-6.1c4.1-1.1,10-3.5,22.6,3.1C290.9,356.2,268.6,356,268.6,356z"/>
	<polygon class="st2" points="382.9,355.7 378.9,345.5 373.9,342.3 362.4,338.8 370.5,344 370,347.6 377.1,352.7 368.8,352.3 
		374.1,356.9 366,360.6 379.6,361.6 379.3,357.2 	"/>
	<polygon class="st4" points="377.6,352.7 377,349 378.5,350.3 379,346.4 380.4,352.8 379.3,353.3 383,356.9 378.5,354.4 
		374.3,355.3 375.1,353.7 372.5,352.4 	"/>
	<path class="st16" d="M367,346.8l-2.1,5.8c0,0,12.4,0.2,12.7,0.1C377.8,352.5,372.3,347.4,367,346.8z"/>
	<polygon class="st16" points="352.5,346.9 354.7,353.2 350.3,353.2 342.8,351.9 348.5,348.4 	"/>
	<polygon class="st2" points="289.3,364.4 273.6,361.5 269,355.8 279.9,349 264.3,350.7 257.1,355 264.5,355.3 257.8,360.3 
		266.8,358.2 266.9,362.8 276.8,367.8 	"/>
	<path class="st3" d="M312.2,315l11.8,4.2l17.4-7.8l6.3,5.8l-14.3,24.9l1.4,33.7l12.2,7.1l2.3,3l1.8,8c0,0-8.1,6-8.9,6.3
		c-4,1.5-16.2-3.5-16.2-3.5l-15.7,4.4l-7.9-3.4l-3.9-9.4l13.9-10.6l6.3-18.6l-5.4-31.8l-26.9-8L312.2,315z"/>
	<path class="st2" d="M347.1,382c0,0,3.8,10.9,1.5,13.6c-2.3,2.8-12,4.3-12,4.3s12.3,3,15.5-3.5C355.9,388.8,347.2,382.3,347.1,382z
		"/>
	<path class="st7" d="M314.1,385.4c0,0,7.7,3.1,11.8,3.4c3,0.2,10.1-2.2,14.9-7.1c1,0.2-1.3,6.8-2.2,8.3c-1.2,2-11.1,7.6-12.5,6.7
		C324.6,395.8,315,392.9,314.1,385.4z"/>
	<path class="st7" d="M314.3,331.1c0,0,5,25.3,4.6,29.6c-1.6,20.5-14.9,20.4-14.9,20.4l-5.8-7.3l1.2-9.3l13.2-14.8L314.3,331.1z"/>
	<path class="st2" d="M332.8,396.8c0.2-0.5,2.5-2,5.4-4.7c-3.6,1.3-8.2,3.5-11.9,3.2c-4.5-0.4-8-3.6-8-3.6l-5.5-10
		c0,0-3.7,8.8,7.6,13.7c-1.4-0.4,0.9,0.3,0.9,0.3l-7.5-0.3c0,0-3.5,4.3-2.5,5.2c1,0.8,9.1-2.3,9.1-2.3l6.4-0.3l9.4,2.1
		C336.3,400.1,333.7,397.9,332.8,396.8z"/>
	<polygon class="st2" points="305,352.5 300.3,347.4 292.1,344.6 294.3,346.6 289.7,348.6 296.5,349.9 301.1,352.7 	"/>
	<path class="st7" d="M330.9,332.8c0,0-3.3,45.3,2.5,48c5.8,2.7,13.3,1.6,16.3,4.1c-1.9-2.8-5.3-5.4-8.3-5.9
		c2.4-2.9,6.9-2.9,8.1-3.1C339.2,369.3,343.2,359.3,330.9,332.8z"/>
	<path class="st2" d="M317.8,366c0,0-0.6,9.3-2.2,11.5c-1.6,2.2-11.7,5.6-13.7,10.3c-2,4.7,4.4,19.4,12.3,8.8
		c-0.3,1.7-0.7,3.6-3.8,4.4c-4.9,1.3-12.5-1.7-12.5-14.8c4.9-9.4,13-7.3,15.4-10.5C315.6,372.7,317.8,366,317.8,366z"/>
	<path class="st2" d="M357.7,315.3c0,0-32.2,0-28,23.4c1.3,7.1,2.8,10.5,4.5,14.6c1.7,4,8.4,23.2,15.3,22.6
		c-5.1-8.2-4.1-13.2-4.1-13.2c8.2-0.3,19.4-1.7,19.4-1.7s-10-0.3-13.8-2.5c-1.4-0.8,9.2-3.9,7.7-5c-4.6-0.3-7.5-0.9-10.2-1
		c-11-0.5-9.6-5.6-9.9-10C337.7,329.4,357.7,315.3,357.7,315.3z"/>
	<path class="st2" d="M289.7,319.2c0,0,16.8-1.7,21.2,1.7c4.4,3.4,10.8,16.6,6.8,31.3c-1.2,4.2-11.7,16.6-31.2,13.3
		c9-0.8,18.7-10.3,20.5-11.9c0,0,5-6.9,0.4-15.5C302.8,329.4,289.7,319.2,289.7,319.2z"/>
	<path class="st5" d="M360.8,344.9c-5.1,0.1-10.2,2.1-11.7,2.8c-1.5,0.7-6.4,3.8-6.4,3.8s0.3,0.8,1.8,0.1c0.3-0.1,1.5-1.3,1.8-1.6
		c1.4-1,3.4-1.6,5.8-2.4c0.1,1,0.6,3.3,1.6,4.7c-2,0.7-6,0.5-6,0.5c8.3,2.6,23.9-0.9,22.1-0.7c-0.6,0.1-3.7-0.5-3.7-0.5
		s1.6-2.7,1.8-4.5c4.5,1.6,7.8,4.4,7.8,4.4l-3.6,0.7c0,0,5,1.3,6.4,0.5C375.9,349.3,367.7,344.8,360.8,344.9z"/>
	<polygon class="st4" points="334.7,343.8 335.2,352.1 341.5,364.5 344,367.4 340.9,359.4 341,353.3 346.4,357.3 353.1,360.6 
		339.2,349.5 340.1,344.9 337.4,346.3 337.6,337.6 	"/>
	<circle class="st17" cx="360.5" cy="349" r="1.7"/>
	<path class="st5" d="M346.3,346.1c0,0,15.5-14.4,31.8-0.8C362.9,334.1,346.3,346.1,346.3,346.1z"/>
	<path class="st5" d="M305,352.5c0,0-0.6-0.1-2.9-0.1c-2.3,0-7.4-5.3-16.4-4.3c-9.1,1.1-16.9,6.6-19.1,8.5c-2.2,1.9,6-0.4,6-0.4
		l-1.7-0.6c0,0,2.2-2.1,7.8-4.3c0,0.9,0.1,3.1,1.5,4.3c-1.5,0.4-4.1,0.3-4.1,0.3c6.1,1.8,16-0.4,18.2-1.6c-0.8,0.1-1.8,0.2-3,0.3
		c0.4-0.7,2-3.2,1.5-4.9c3.6,1.2,7.4,3.4,8.7,3.6C305.4,354,305,353.5,305,352.5z"/>
	<circle class="st17" cx="285.5" cy="352.2" r="1.7"/>
	<circle class="st17" cx="282" cy="353" r="0.9"/>
	<circle class="st17" cx="356.5" cy="349.5" r="0.9"/>
	<circle class="st17" cx="290" cy="351.5" r="0.6"/>
	<circle class="st17" cx="364.6" cy="348.2" r="0.6"/>
	<path class="st5" d="M264.4,354.1c0,0,17.6-19.6,36.5-5.8C282.7,336.9,264.4,354.1,264.4,354.1z"/>
	<path class="st5" d="M345.4,329.7l6-3.4l-2,3.5c0,0,12-6.8,23.1-4.5c1.1,0.2-1.4,1.6-1.4,1.6l5.9-0.3l-0.3,2.1l5.1,0.2l-0.6,0.9
		l5.1,1.5l-1.8,0.5l3.9,1.5l-0.7,2l1.3,0.2l1.9,2.5c0,0-1.9-10.4-4.3-12.6c-2.8-2.6-14.1-10.5-17.9-10.2c2.7,4.7,2,3.1,2,3.1
		l-7.7-2.9l0.2,2.9c0,0-12-1.7-14.8-0.2c-0.1-0.3,0.2-1,0.6-1.4c-0.8-0.2-6.4,7.2-6.4,7.2l2.5-1.2c0,0-4.8,5.2-4.9,7.1
		c-0.2,1.8,3.6-1.7,3.6-1.7L345.4,329.7z"/>
	<path class="st5" d="M343,318.2c0,0-4.6,9.1-4.1,11.1c0.5,2-2.7-2.5-2.7-2.5l-0.6,4l-1.4-1.9l0.1,2.5l-5.3-3.8l3.8,0.9l-1-2.7
		l1.4,0.8l0.9-4.1l0.8,0.8l1.2,1.6l0.8-4.3l1.4,2.2L343,318.2z"/>
	<path class="st5" d="M306.9,332.6c0,0,0.8-5.3-4.1-8.7c-4.9-3.3-4.5-0.5-4.5-0.5s-3-4-6.7-3.8c-3.7,0.2-12.5-0.6-12.5-0.6l-7.4,3.4
		l1.7-2.7c0,0-8.4,1.3-12.5,6.1c-4.1,4.8-8.8,8.6-9,11.8c5-4.7,7.8-5.2,7.8-5.2l-0.2,0.9c0,0,10.1-3.7,13.9-4.7
		c1.2-0.3-2.5,2.3-1.3,2.3c0,0,8.2-2.9,12.3-2.8c4.6,0.2,10.9,3.4,10.9,3.4l-1.3-2.8C294,328.8,305.5,334.8,306.9,332.6z"/>
	<path class="st5" d="M309.1,330.5c0,0-2.9-6.7-3.8-8c-0.9-1.3,2.8,2.7,2.8,2.7l2-2.3l0.5,2.4l4.6-1l-1.5,6.1l-1.2-3.5l-1.5,2.8
		l-1.3-2.2L309.1,330.5z"/>
	<path class="st5" d="M332.2,396.3c0,0,1.2-2.7,2.7-3.3c1-0.4,2.6-1.1,3.8-1.6c0.8-0.3,1.4-0.5,1.7-0.5c0.9,0,3,2.9,2.3,3.6
		C342.1,395.1,332,396.9,332.2,396.3z"/>
	<path class="st5" d="M321.4,395.8c0,0-4.3-3.7-7.4-3.5c-3.1,0.2-3,1.8-2.5,2.5c0.5,0.7,2.9,1.3,3.9,1.2
		C316.3,396,320.6,395.8,321.4,395.8z"/>
	<path class="st5" d="M303.9,385.2c0,0-2.7,2.8-2.1,5.7c0.6,2.9,1.1,5.9,3.9,7.4c2.8,1.5,6.4,2,7.7-0.3c-1.2,2.7-5.1,2.4-5.6,2.3
		c0,0-4.8-1.6-5.9-4.7C299.4,389.1,302.5,385.1,303.9,385.2z"/>
	<path class="st5" d="M341.7,376.7c0,0-1.6,1.8-0.3,2.7c1.8,0.8,4.7,2.8,5.7,3.4c-0.9-1.2-4.7-3.7-5.1-4.1
		C341.6,377.9,341.7,376.7,341.7,376.7z"/>
	<path class="st5" d="M343.5,354.9c0,0,7.7,6.5,14,6.6C349.5,363,343.5,354.9,343.5,354.9z"/>
	<rect x="79.5" y="-586.8" class="st18" width="462.7" height="570.5"/>
	<rect x="93.3" y="-570.8" class="st19" width="434.7" height="540.4"/>
	<rect x="103.7" y="-558.9" class="st20" width="415.1" height="517.7"/>
	<g>
		<g>
			<path class="st17" d="M479.1-117.8c0,0.4,0,0.8,0.1,1.1c0.2,0.4,0.5,0.5,0.8,0.5v0.8l-4.4-0.4v-0.8c0.7-0.1,1-0.5,1-1.2
				l-0.7-15.8c0-0.5-0.1-1.2-1-1.2v-0.8l5.4-0.4v0.8c-0.1,0-0.5,0.4-0.8,0.7c-0.2,0.2-0.2,0.8-0.2,0.9l-0.3,8.2l4-6.7
				c0.2-0.3,0.2-0.5,0.2-0.8c0-0.4-0.6-0.6-1.3-0.6v-0.8l4.3,0.3l0,0.8c-0.2,0-0.5-0.1-0.7-0.1c-0.1,0-0.4,0-0.5,0
				c-0.3,0.2-0.6,0.6-0.8,1l-2.3,4.1l3.4,8.6c0.2,0.4,0.4,0.8,0.5,1.2c0.1,0,0.1,0.1,0.2,0.1c0.2,0,0.2-0.1,0.6-0.1v0.8l-5.2,0.7
				v-0.8c0.2-0.1,0.5-0.4,0.7-0.6c0.1-0.2,0.2-0.4,0.2-0.5c0-0.3-0.1-0.5-0.1-0.8l-1.7-6.6l-1.5,2.7V-117.8z"/>
			<path class="st17" d="M485.8-116.4v-0.9c1-0.1,1.2-0.5,1.4-1l0.3-14c0-1-0.2-1.5-1-1.8v-0.8l5.2,0.4v0.8c-0.6,0.1-1,0.4-1.1,1.1
				l-0.8,13.8c0,0,0,0.7,0.2,0.9c0.2,0.2,0.7,0.6,0.9,0.7v0.8H485.8z"/>
			<path class="st17" d="M499.1-130.9c-0.1-0.4-0.1-0.9-0.3-1.4c-0.3-0.4-0.5-0.7-0.7-1c-0.5-0.6-1.2-1-2.1-1c-0.9,0-0.9,0.3-1,1.2
				l-0.2,6.4c0.8-0.1,1.2-0.8,1.7-1.5c0.1-0.2,0.3-0.6,0.3-0.9h0.8l0.2,5.7H497c0-0.3-0.1-0.6-0.3-0.9c-0.2-0.3-0.8-0.9-1-1.1
				c-0.3-0.2-0.7-0.4-1-0.4l-0.3,7c0,0.7,0.4,1,1.2,1c0.8,0,1.4-0.2,2-1.1c0.3-0.4,0.5-0.6,0.8-1.3c0.2-0.4,0.2-0.7,0.2-1.2h0.9
				l0.3,4.5l-8.8,0.3v-1.1c0.7-0.1,1.1-0.4,1-1.2l-0.4-14.5c0-0.3-0.1-1.1-1.1-1.2v-0.8l9.4,0.3l-0.2,4.3H499.1z"/>
			<path class="st17" d="M510.3-121c0,0.1,0.1,0.5,0.1,0.8c0,2.5-0.9,3.6-2.5,3.6c-1,0-1.7-0.5-2.1-1.3c-0.4-0.8-0.6-1.3-0.6-2.5
				l0.1-2.7c0-0.1,0.2-0.7,0.2-1.4c0-0.5,0-1-0.3-1.6c-0.4-0.6-1.1-0.7-2.1-0.7l-0.3,7c0,0.6,0.3,1.2,1.1,1.2v0.8h-4.3v-0.8
				c1-0.1,1.2-0.8,1.2-1.2l-0.5-13.2c0-0.3-0.4-0.5-1-0.6v-0.8c2.2-0.4,3.4-0.8,5.3-0.8c1.7,0,2.4,0.2,3.2,0.6
				c1.1,0.6,1.3,1.5,1.3,2.5c0,0.4-0.1,1.1-0.2,1.4c-0.2,1.3-0.9,3.2-3.8,3.6c1.4,0.3,2.1,0.8,2.7,1.6c0.4,0.6,0.5,1.4,0.5,2.1
				c0,1.4-0.2,2-0.2,3.3c0,1.3,0.2,1.9,0.8,1.9c0.2,0,0.5-0.3,0.5-0.5c0.2-0.5,0.3-1.2,0.3-1.8c0-0.2,0-0.5,0-0.7L510.3-121z
				 M506.3-131.4c0-0.7-0.2-1.2-0.4-1.7c-0.3-0.6-0.7-0.9-1.4-0.9c-0.7,0-1,0.4-1,1.1l-0.3,5.7l0.9,0.1c0.6,0,0.8-0.2,1.1-0.5
				C506-128.3,506.2-130.3,506.3-131.4z"/>
			<path class="st17" d="M477.9-102.5l-1.7-9.1c-0.1-0.3-0.1-0.5-0.3-0.7c-0.1-0.1-0.3-0.2-0.6-0.2v-0.5l3.1-0.4v0.5
				c-0.3,0-0.6,0.1-0.6,0.4c0,0.1,0,0.2,0,0.4l1.1,5.9l1.5-6.4c0-0.2,0.1-0.4,0.1-0.4c0-0.4-0.3-0.6-0.8-0.7v-0.5l2.3,0.4v0.5
				c-0.5,0.1-0.7,0.6-0.8,1.1l-2.4,9.6L477.9-102.5z"/>
			<path class="st17" d="M486.7-111.7c0-0.3-0.1-0.6-0.2-0.8c-0.2-0.2-0.3-0.5-0.4-0.6c-0.3-0.4-0.8-0.6-1.3-0.6
				c-0.5,0-0.6,0.2-0.6,0.8l-0.1,3.9c0.5-0.1,0.8-0.5,1.1-0.9c0.1-0.1,0.2-0.4,0.2-0.6h0.5l0.1,3.5h-0.5c0-0.2,0-0.4-0.2-0.6
				c-0.1-0.2-0.5-0.6-0.6-0.7c-0.2-0.1-0.4-0.2-0.6-0.3l-0.2,4.3c0,0.5,0.3,0.6,0.7,0.6c0.5,0,0.8-0.2,1.2-0.7
				c0.2-0.3,0.3-0.4,0.5-0.8c0.1-0.2,0.1-0.4,0.1-0.7h0.6l0.2,2.8l-5.5,0.2v-0.7c0.5-0.1,0.7-0.3,0.6-0.7l-0.2-9
				c0-0.2,0-0.7-0.7-0.8v-0.5l5.8,0.2l-0.2,2.6H486.7z"/>
			<path class="st17" d="M493.7-105.6c0,0.1,0,0.3,0,0.5c0,1.6-0.6,2.2-1.5,2.2c-0.6,0-1-0.3-1.3-0.8c-0.2-0.5-0.4-0.8-0.4-1.6
				l0.1-1.6c0,0,0.1-0.4,0.1-0.8c0-0.3,0-0.6-0.2-1c-0.3-0.4-0.7-0.4-1.3-0.4l-0.2,4.3c0,0.4,0.2,0.7,0.7,0.8v0.5H487v-0.5
				c0.6-0.1,0.7-0.5,0.7-0.8l-0.3-8.2c0-0.2-0.2-0.3-0.6-0.4v-0.5c1.4-0.3,2.1-0.5,3.3-0.5c1.1,0,1.5,0.1,2,0.4
				c0.7,0.4,0.8,1,0.8,1.5c0,0.2-0.1,0.7-0.1,0.9c-0.2,0.8-0.6,2-2.3,2.2c0.9,0.2,1.3,0.5,1.7,1c0.3,0.4,0.3,0.9,0.3,1.3
				c0,0.8-0.1,1.2-0.1,2c0,0.8,0.2,1.2,0.5,1.2c0.2,0,0.3-0.2,0.3-0.3c0.1-0.3,0.2-0.8,0.2-1.1c0-0.1,0-0.3,0-0.5L493.7-105.6z
				 M491.2-112c0-0.4-0.1-0.7-0.3-1c-0.2-0.4-0.4-0.5-0.9-0.5c-0.5,0-0.6,0.3-0.6,0.7l-0.2,3.5l0.6,0.1c0.4,0,0.5-0.2,0.7-0.3
				C491-110.1,491.1-111.4,491.2-112z"/>
			<path class="st17" d="M500-107.8c-0.2,0-0.4,0.1-0.6,0.1c-0.2,0.2-0.1,0.6-0.3,5.2h-0.7l0-1.5c-0.6,0.8-1.2,1.2-2,1.2
				c-1,0-1.7-0.5-2.2-1.4c-0.8-1.4-1-3.3-1-4.7c0-1.2,0.1-2.5,0.6-3.4c0.6-0.9,1.4-1.6,2.6-1.6c0.4,0,0.8,0.2,1.1,0.3l0.6,0.3
				l-0.2-1.3l0.8-0.1l0.2,4.2h-0.6c-0.3-1.9-0.9-3-2.1-3c-1,0-1.2,2-1.2,3.2c0,0.6,0,1.5,0,1.5c0,1.4,0.1,3.4,0.5,4.6
				c0.1,0.5,0.4,0.8,0.8,0.8c0.3,0,0.6-0.2,0.7-0.5c0.2-0.5,0.3-0.9,0.3-1.4l0.1-1.8c0-0.3-0.1-0.7-0.2-0.8c-0.1,0-0.3,0-0.4,0
				c-0.1,0-0.1,0-0.2,0l0-0.7l3.1,0.2L500-107.8z"/>
			<path class="st17" d="M504.6-111.7c0-0.3-0.1-0.6-0.2-0.8c-0.2-0.2-0.3-0.5-0.4-0.6c-0.3-0.4-0.8-0.6-1.3-0.6
				c-0.5,0-0.6,0.2-0.6,0.8l-0.1,3.9c0.5-0.1,0.8-0.5,1.1-0.9c0.1-0.1,0.2-0.4,0.2-0.6h0.5l0.1,3.5h-0.5c0-0.2-0.1-0.4-0.2-0.6
				c-0.1-0.2-0.5-0.6-0.6-0.7c-0.2-0.1-0.4-0.2-0.6-0.3l-0.2,4.3c0,0.5,0.3,0.6,0.7,0.6c0.5,0,0.8-0.2,1.2-0.7
				c0.2-0.3,0.3-0.4,0.5-0.8c0.1-0.2,0.1-0.4,0.1-0.7h0.6l0.2,2.8l-5.5,0.2v-0.7c0.5-0.1,0.7-0.3,0.6-0.7l-0.2-9
				c0-0.2,0-0.7-0.7-0.8v-0.5l5.8,0.2l-0.2,2.6H504.6z"/>
			<path class="st17" d="M510.1-102.9l-5.4,0.3v-0.5c0.5-0.1,0.6-0.4,0.6-0.8l0.2-9.2c0-0.3-0.1-0.7-0.7-0.8v-0.5l3.3,0.3l0,0.5
				c-0.6,0-0.8,0.6-0.8,1l-0.5,8.6c0,0.4,0.3,0.6,0.6,0.6c0.5,0,1-0.3,1.3-0.7c0.3-0.6,0.5-1.2,0.6-1.8l0.5-0.1L510.1-102.9z"/>
			<path class="st17" d="M476.1-89.1v-0.6c0.5-0.1,0.6-0.3,0.5-0.6l-0.5-7.2c0-0.3-0.1-0.6-0.5-0.7v-0.8l2,0.2c1,0.1,2.4,0.3,3,0.8
				c0.3,0.3,0.6,1,0.8,1.5c0.1,0.3,0.1,0.7,0.1,1.1c0,1-0.1,1.9-0.3,2.9c-0.1,0.7-0.3,1.6-0.7,2.1c-0.6,0.7-1.5,1.1-2.6,1.2
				L476.1-89.1z M477.9-90.7c0,0.2,0.1,0.5,0.1,0.6c0.1,0.1,0.2,0.1,0.4,0.1c0.2,0,0.4,0,0.6,0c0.2-0.1,0.3-0.3,0.4-0.6
				c0-0.2,0.2-1.5,0.4-5.8c0-0.3,0-0.7-0.1-0.9c-0.2-0.5-0.9-0.8-1.4-0.8c-0.5,0-0.5,0.4-0.5,0.7L477.9-90.7z"/>
			<path class="st17" d="M485.3-96.7c0-0.2-0.1-0.5-0.1-0.7c-0.1-0.2-0.2-0.4-0.4-0.5c-0.3-0.3-0.6-0.5-1.1-0.5
				c-0.5,0-0.5,0.1-0.5,0.6l-0.1,3.3c0.4-0.1,0.6-0.4,0.9-0.8c0.1-0.1,0.2-0.3,0.2-0.5h0.4l0.1,3h-0.4c0-0.2,0-0.3-0.1-0.5
				c-0.1-0.2-0.4-0.5-0.5-0.6c-0.1-0.1-0.4-0.2-0.5-0.2l-0.1,3.6c0,0.4,0.2,0.5,0.6,0.5c0.4,0,0.7-0.1,1.1-0.6
				c0.2-0.2,0.3-0.3,0.4-0.7c0.1-0.2,0.1-0.4,0.1-0.6h0.5l0.2,2.4l-4.6,0.2v-0.6c0.4-0.1,0.6-0.2,0.5-0.6l-0.2-7.6
				c0-0.2,0-0.6-0.6-0.6v-0.4l4.9,0.2l-0.1,2.2H485.3z"/>
			<path class="st17" d="M492.4-89.1v-0.6c0.5-0.1,0.6-0.3,0.5-0.6l-0.5-7.2c0-0.3-0.1-0.6-0.5-0.7v-0.8l2,0.2c1,0.1,2.4,0.3,3,0.8
				c0.3,0.3,0.6,1,0.8,1.5c0.1,0.3,0.1,0.7,0.1,1.1c0,1-0.1,1.9-0.3,2.9c-0.1,0.7-0.3,1.6-0.7,2.1c-0.6,0.7-1.5,1.1-2.6,1.2
				L492.4-89.1z M494.2-90.7c0,0.2,0.1,0.5,0.1,0.6c0.1,0.1,0.2,0.1,0.4,0.1c0.2,0,0.4,0,0.6,0c0.2-0.1,0.3-0.3,0.4-0.6
				c0-0.2,0.2-1.5,0.4-5.8c0-0.3,0-0.7-0.1-0.9c-0.2-0.5-0.9-0.8-1.4-0.8c-0.5,0-0.5,0.4-0.5,0.7L494.2-90.7z"/>
			<path class="st17" d="M497.3-89.1v-0.5c0.5-0.1,0.6-0.3,0.7-0.5l0.2-7.3c0-0.5-0.1-0.8-0.5-0.9v-0.4l2.7,0.2v0.4
				c-0.3,0.1-0.5,0.2-0.6,0.6l-0.4,7.2c0,0,0,0.4,0.1,0.5c0.1,0.1,0.4,0.3,0.5,0.4v0.4H497.3z"/>
			<path class="st17" d="M504.9-91.3c-0.5,1.4-1.4,2.3-2.4,2.3c-1.2,0-2.1-1.2-2.5-2.5c-0.2-0.5-0.2-2-0.2-3c0-0.4,0.2-1.9,0.4-2.4
				c0.5-1.5,1.1-2.5,2.4-2.5c0.6,0,1.1,0.3,1.6,0.7c0.5,0.4,0.7,0.9,0.9,1.6c0.2,1,0.2,1.7,0.2,2.6
				C505.4-93.8,505.3-92.7,504.9-91.3z M503.9-97c-0.2-1-0.4-1.8-0.9-1.8c-0.5,0-0.9,0.6-1.1,1.8c-0.2,1.3-0.2,3.2-0.2,4.1
				c0,0.7,0,1.3,0.2,1.9c0.1,0.5,0.4,1.1,0.8,1.1c0.4,0,0.7-0.4,0.9-1.1c0.3-1.3,0.4-2.4,0.4-3.7C503.9-95.6,504-96.3,503.9-97z"/>
			<path class="st17" d="M509.2-89.8c-0.3,0.3-0.8,0.7-1.7,0.7c-0.5,0-1.3-0.5-1.6-0.5c-0.1,0-0.2,0-0.3,0.1c0,0.1,0,0.2,0,0.2
				c0,0.1,0,0.3,0,0.3l-0.6,0l-0.2-3.3l0.5,0c0.5,2,1.3,2.7,2.2,2.7c0.5,0,1-0.2,1.2-1c0-0.1,0-0.2,0-0.3c0-0.3-0.1-0.7-0.5-1
				c-0.1-0.1-0.5-0.6-1.4-1.4c-0.3-0.3-0.8-0.8-1.1-1.4c-0.2-0.3-0.4-0.7-0.5-1c-0.1-0.4-0.1-0.8-0.1-1.2c0-0.2,0.1-1,0.6-1.6
				c0.4-0.5,0.9-0.7,1.6-0.7c0.4,0,1.1,0.5,1.3,0.5c0-0.1,0-0.4,0-0.6l0.8-0.1v3l-0.5,0c-0.1-0.6-0.3-1.1-0.7-1.6
				c-0.2-0.3-0.6-0.7-1-0.7c-0.6,0-1.1,0.1-1.1,0.9c0,0.9,0.7,1.8,0.9,2.1c0.7,1.1,1.7,1.6,2.3,2.6c0.3,0.4,0.4,1,0.4,1.7
				C509.8-90.8,509.5-90.2,509.2-89.8z"/>
			<path class="st17" d="M480.6-64.6v-0.8c0.8,0,1.1-0.4,1.1-0.9c0-0.3,0-0.7-0.1-1l-1-4l-3.7,0.3l-0.9,2.4
				c-0.1,0.2-0.1,0.5-0.1,0.8c0,0.8,0.5,1.3,1.5,1.4v0.8h-4.1v-0.8c0.9-0.1,1.4-1.2,1.7-2.5l4.2-17.7h1.8l3.9,19.1
				c0.2,1,0.6,2,1.6,2.1v0.8H480.6z M479-80.5l-1.8,8.4l3.2-0.3L479-80.5z"/>
			<path class="st17" d="M500.1-71.2c0,0.2,0.1,0.5,0.1,0.9c0,2.5-0.5,4.7-2.8,4.7c-1.1,0-1.9-0.6-2.4-1.5c-0.4-0.7-0.6-1.8-0.6-4.3
				c0-1.2-0.1-3.1-0.6-4c-0.5-0.7-1.5-0.8-2.3-0.8l0.3,9.1c0,0.7,0.3,1.3,1.3,1.4v0.9h-5.9v-0.9c0.8-0.1,1.3-0.6,1.3-1.4l0.3-16.3
				c0-0.8-0.3-1.3-1.2-1.4v-0.9l4.9,0.3c1.5,0.1,3,0.3,4.2,1c1.1,0.6,1.9,1.7,1.9,3.6c0,2.9-2.5,4-4.9,4.4c1.3,0.3,2.3,0.8,3,1.8
				c0.6,0.9,0.9,2.1,1.1,3.5c0.1,0.5,0.1,1.7,0.1,2.3c0,0.7,0.2,1.8,0.6,1.8c0.3,0,0.5-0.2,0.6-0.6c0.2-0.5,0.3-1.8,0.3-2.7
				c0-0.2,0-0.6-0.1-0.8L500.1-71.2z M493.8-83c-0.4-0.6-1-0.9-1.7-0.9c-0.6,0-1.1,0.3-1.1,1.2v6.3h0.3c0.8,0,1.8-0.2,2.3-0.9
				c0.7-0.9,1-1.9,1-3C494.6-81.4,494.2-82.4,493.8-83z"/>
			<path class="st17" d="M511.8-77.9H511c-0.3-1.9-0.9-4.7-2-5.2l-0.9-0.2l0.4,16.4c0,0.6,0.1,1.1,0.2,1.3c0.3,0.5,0.7,0.5,1.1,0.6
				v1.2l-6.5-0.4v-1.2c0.4,0,0.7,0,0.9,0c0.2,0,0.5,0,0.6-0.1c0.2-0.4,0.2-0.9,0.2-1.4l-0.4-16.8c-0.5,0.2-1.2,0.5-1.7,1.5
				c-0.8,1.4-0.9,1.6-1.2,2.8h-1.2l0.5-6.6l10.9,1.2L511.8-77.9z"/>
		</g>
		<g>
			<path class="st21" d="M492.3-141L492.3-141c0.8-2.3,3.2-3,4.5-3c1.4,0,3.5,0.5,4.3,0.7c0.7,0.3,1.4,0.4,1.7,0.4
				c1,0,1.9-0.7,1.9-1.9c0-1.2-0.9-1.9-2-1.9c-0.7,0-0.9,0.4-1.1,0.7c0.7-0.1,0.9,0.4,0.9,0.7c0,0.3-0.2,0.7-0.8,0.7
				c-0.7,0-1.1-0.4-1.1-1.1c0-0.7,0.8-1.7,2.1-1.7c1.3,0,2.6,0.7,2.6,2.5c0,1.9-1.4,2.5-2.6,2.5c-0.4,0-1-0.2-1.6-0.4l-0.1,0.1
				c3.5,3.3,4.7,4.5,6.6,4.5c1.2,0,2.1-0.7,2.1-1.9c0-1.3-1-1.4-1.4-1.4c-0.2,0-0.4,0.1-0.5,0.3c0.1,0.1,0.4,0.1,0.4,0.7
				c0,0.5-0.4,0.7-0.9,0.7c-0.4,0-1-0.3-1-1.1c0-0.7,0.7-1.4,1.6-1.4c2.2,0,2.5,1.5,2.5,2.2c0,0.5-0.4,2.5-2.9,2.5
				c-2.7,0-4.8-2.8-6.5-4.3l-0.1,0.1c0.3,0.5,0.4,1.1,0.4,1.7c0,0.6-0.4,2.5-2.5,2.5c-1.7,0-2.4-1.3-2.4-1.9c0-0.9,0.7-1.9,1.7-1.9
				c0.9,0,1.3,0.6,1.3,1c0,0.5-0.2,0.9-0.7,0.9c-0.5,0-0.7-0.3-0.7-0.8c-0.1-0.1,0-0.3,0-0.4c-0.3,0-0.9,0.2-0.9,1.1
				c0,0.8,0.8,1.4,1.7,1.4c0.9,0,2-0.5,2-2.1c0-1.5-0.7-3.2-3.9-3.2c-1,0-3.8,0.7-3.8,3.6c0,1.5,0.8,1.8,1.4,1.8
				c0.5,0,0.9-0.3,0.9-0.7c0-0.3-0.2-0.6-0.5-0.7c0,0.3-0.2,0.5-0.4,0.5c-0.3,0-0.5-0.3-0.5-0.6c0-0.3,0.2-0.7,0.8-0.7
				c0.4,0,1.2,0.3,1.2,1.2c0,1.1-0.8,1.4-1.5,1.4c-0.9,0-1.7-0.5-1.9-1.5h-0.1c-0.3,1.1-1.1,1.5-2,1.5c-0.7,0-1.4-0.3-1.4-1.4
				c0-0.9,0.8-1.3,1.2-1.3c0.6,0,0.8,0.5,0.8,0.7c0,0.3-0.2,0.6-0.5,0.6c-0.3,0-0.4-0.3-0.4-0.5c-0.3,0.1-0.5,0.3-0.5,0.6
				c0,0.5,0.4,0.8,0.9,0.8c0.7,0,1.4-0.3,1.4-1.8c0-2.9-2.8-3.6-3.9-3.6c-3.1,0-3.8,1.7-3.8,3.1c0,1.7,1,2.1,2,2.1
				c0.9,0,1.7-0.6,1.7-1.4c0-0.9-0.7-1.1-1-1.1c0.1,0.1,0.1,0.3,0.1,0.4c0,0.5-0.2,0.8-0.7,0.8c-0.6,0-0.7-0.5-0.7-0.9
				c0-0.4,0.4-1,1.3-1c1.1,0,1.7,1,1.7,1.9c0,0.6-0.7,1.9-2.4,1.9c-2.1,0-2.5-1.9-2.5-2.5c0-0.6,0.1-1.1,0.3-1.7l-0.1-0.1
				c-1.7,1.5-3.8,4.3-6.5,4.3c-2.5,0-2.8-1.9-2.8-2.5c0-0.7,0.3-2.2,2.4-2.2c0.9,0,1.7,0.7,1.7,1.4c0,0.8-0.6,1.1-1,1.1
				c-0.4,0-0.9-0.3-0.9-0.7c0-0.5,0.3-0.6,0.4-0.7c-0.1-0.2-0.3-0.3-0.5-0.3c-0.4,0-1.4,0.1-1.4,1.4c0,1.2,0.9,1.9,2.1,1.9
				c1.9,0,3.1-1.2,6.5-4.5l-0.1-0.1c-0.5,0.2-1.2,0.4-1.6,0.4c-1.2,0-2.5-0.7-2.5-2.5c0-1.8,1.3-2.5,2.5-2.5c1.4,0,2.2,1,2.2,1.7
				c0,0.7-0.4,1.1-1.1,1.1c-0.6,0-0.8-0.4-0.8-0.7c0-0.3,0.1-0.8,0.9-0.7c-0.1-0.3-0.4-0.7-1.2-0.7c-0.9,0-1.9,0.7-1.9,1.9
				c0,1.3,0.9,1.9,1.9,1.9c0.4,0,1-0.1,1.7-0.4c0.8-0.3,2.9-0.8,4.2-0.8C489.2-144.1,491.6-143.3,492.3-141L492.3-141z M487.8-148
				c1.5,0,3,2.8,3,3.8c0,0.1,0,0.3-0.1,0.4c-0.3-0.5-0.9-1.1-1.7-1.5c-0.9-0.4-2.2-0.7-2.2-1.7C486.8-147.6,487.3-148,487.8-148z
				 M493.7-148.7c0,0.9-0.8,2.7-0.9,3.4c-0.1,0.7-0.4,2.5-0.4,2.5s-0.3-1.9-0.4-2.5c-0.1-0.7-1-2.6-1-3.4c0-0.8,0.2-2.2,1.4-2.2
				C493.6-150.9,493.7-149.5,493.7-148.7z M495.4-145.3c-0.9,0.3-1.4,1-1.7,1.5c-0.1-0.1-0.1-0.3-0.1-0.4c0-1,1.5-3.8,3-3.8
				c0.6,0,1,0.5,1,1C497.7-146.1,496.4-145.8,495.4-145.3z"/>
		</g>
		<g>
			<path class="st21" d="M492-59.5c-0.7,2.3-3.1,3-4.5,3c-1.3,0-3.4-0.5-4.2-0.8c-0.7-0.3-1.4-0.4-1.7-0.4c-1,0-1.9,0.7-1.9,1.9
				c0,1.2,0.9,1.9,1.9,1.9c0.7,0,1-0.4,1.2-0.7c-0.7,0.1-0.9-0.4-0.9-0.7c0-0.3,0.2-0.7,0.8-0.7c0.7,0,1.1,0.4,1.1,1.1
				c0,0.7-0.8,1.7-2.2,1.7c-1.2,0-2.5-0.7-2.5-2.5c0-1.9,1.4-2.5,2.5-2.5c0.4,0,1.1,0.2,1.6,0.4l0.1-0.1c-3.4-3.3-4.6-4.5-6.5-4.5
				c-1.2,0-2.1,0.7-2.1,1.9c0,1.3,1,1.4,1.4,1.4c0.2,0,0.4-0.1,0.5-0.3c-0.1-0.1-0.4-0.1-0.4-0.7c0-0.5,0.4-0.7,0.9-0.7
				c0.4,0,1,0.3,1,1.1c0,0.7-0.7,1.4-1.7,1.4c-2.1,0-2.4-1.5-2.4-2.2c0-0.5,0.3-2.5,2.8-2.5c2.8,0,4.8,2.8,6.5,4.3l0.1-0.1
				c-0.2-0.5-0.3-1.1-0.3-1.7c0-0.6,0.4-2.5,2.5-2.5c1.7,0,2.4,1.3,2.4,1.9c0,0.9-0.7,1.9-1.7,1.9c-0.9,0-1.3-0.6-1.3-1
				c0-0.5,0.1-0.9,0.7-0.9c0.5,0,0.7,0.3,0.7,0.8c0,0.1,0,0.3-0.1,0.4c0.3,0,1-0.2,1-1.1c0-0.8-0.8-1.4-1.7-1.4c-0.9,0-2,0.5-2,2.1
				c0,1.5,0.7,3.1,3.8,3.1c1.1,0,3.9-0.7,3.9-3.6c0-1.5-0.8-1.8-1.4-1.8c-0.5,0-0.9,0.3-0.9,0.8c0,0.3,0.2,0.5,0.5,0.6
				c0-0.3,0.1-0.5,0.4-0.5c0.3,0,0.5,0.3,0.5,0.6c0,0.3-0.2,0.7-0.8,0.7c-0.4,0-1.2-0.4-1.2-1.3c0-1.1,0.8-1.4,1.4-1.4
				c0.9,0,1.7,0.5,2,1.5h0.1c0.3-1.1,1.1-1.5,1.9-1.5c0.7,0,1.5,0.3,1.5,1.4c0,0.9-0.8,1.2-1.2,1.2c-0.6,0-0.8-0.4-0.8-0.7
				c0-0.3,0.2-0.6,0.5-0.6c0.2,0,0.4,0.3,0.4,0.5c0.3-0.1,0.5-0.3,0.5-0.7c0-0.5-0.4-0.7-0.9-0.7c-0.6,0-1.4,0.3-1.4,1.8
				c0,2.9,2.8,3.6,3.8,3.6c3.2,0,3.9-1.7,3.9-3.2c0-1.6-1-2.1-2-2.1c-0.9,0-1.7,0.6-1.7,1.4c0,0.9,0.7,1.1,0.9,1.1
				c0-0.1-0.1-0.3,0-0.4c0-0.5,0.2-0.8,0.7-0.8c0.5,0,0.7,0.5,0.7,0.9c0,0.4-0.4,1-1.3,1c-1.1,0-1.7-1-1.7-1.9
				c0-0.7,0.7-1.9,2.4-1.9c2.1,0,2.5,1.9,2.5,2.5c0,0.6-0.1,1.1-0.4,1.7l0.1,0.1c1.7-1.5,3.8-4.3,6.5-4.3c2.5,0,2.9,1.9,2.9,2.5
				c0,0.7-0.3,2.2-2.5,2.2c-0.9,0-1.6-0.7-1.6-1.4c0-0.8,0.6-1.1,1-1.1c0.4,0,0.9,0.2,0.9,0.7c0,0.5-0.4,0.6-0.4,0.7
				c0.1,0.2,0.3,0.3,0.5,0.3c0.4,0,1.4-0.1,1.4-1.4c0-1.2-0.9-1.9-2.1-1.9c-1.9,0-3.1,1.2-6.6,4.5l0.1,0.1c0.6-0.2,1.2-0.4,1.6-0.4
				c1.2,0,2.6,0.7,2.6,2.5c0,1.8-1.3,2.5-2.6,2.5c-1.3,0-2.1-1-2.1-1.7c0-0.7,0.4-1.1,1.1-1.1c0.6,0,0.8,0.4,0.8,0.7
				c0,0.3-0.1,0.8-0.9,0.7c0.1,0.3,0.4,0.7,1.1,0.7c1,0,2-0.7,2-1.9c0-1.3-0.9-1.9-1.9-1.9c-0.4,0-1,0.1-1.7,0.4
				c-0.8,0.3-2.9,0.7-4.3,0.7C495.2-56.5,492.8-57.2,492-59.5L492-59.5L492-59.5z M486.5-53.4c0-1,1.3-1.3,2.2-1.7
				c0.9-0.4,1.4-1.1,1.7-1.5c0.1,0.1,0.1,0.3,0.1,0.4c0,1-1.5,3.8-3,3.8C487-52.4,486.5-52.9,486.5-53.4z M492-49.6
				c-1.2,0-1.4-1.4-1.4-2.2c0-0.8,0.9-2.7,1-3.4c0.1-0.7,0.4-2.5,0.4-2.5s0.3,1.9,0.4,2.5c0.1,0.7,0.9,2.5,0.9,3.4
				C493.4-51,493.3-49.6,492-49.6z M497.4-53.4c0,0.5-0.4,1-1,1c-1.5,0-3-2.8-3-3.8c0-0.1,0-0.3,0.1-0.4c0.3,0.5,0.9,1.1,1.7,1.5
				C496.1-54.7,497.4-54.4,497.4-53.4z"/>
		</g>
	</g>
	<g>
		<path class="st22" d="M270.4-180.5L257.8-151l12.1,10.3c0,0,30.6,9.4,50.6,8.2c20-1.2-4.1-34.1-4.1-34.1L270.4-180.5z"/>
		<polygon class="st23" points="239.2,-212.9 239.8,-184.3 261.3,-146.3 271.3,-170.2 272.5,-190.2 		"/>
		<path class="st8" d="M311-133.7c0,0,23.5,4.7,38-6.5c14.4-11.2,18.8-20.3,18.8-20.3s11.2-23.5,12.4-48.9s-51.8,50-51.8,50
			L311-133.7z"/>
		<path class="st24" d="M264.2-183.7c0,0-1.8,15.9,19.4,23c21.2,7.1,32.1,8.5,28.8,13.8c-3.2,5.3-1.5,13.2-1.5,13.2l38.8-16.2
			l0.3-30.3L264.2-183.7z"/>
		<polygon class="st25" points="405.4,-354.6 407,-316.9 408.9,-303 412.9,-291.7 427,-298.3 438.5,-331 441.8,-356.2 433.9,-365.2 
			410.1,-364.8 		"/>
		<polygon class="st26" points="220.4,-340.3 214.5,-322.6 219.2,-310 249.2,-301.7 275.4,-304.1 292,-310.9 296,-320 302.2,-336.2 
			295.7,-338.8 284.8,-319.4 253,-310.9 231,-319.7 228,-336.8 240.7,-330 260.7,-324.7 275.7,-322.3 283.4,-324.1 287.2,-331.8 
			241.6,-341.5 230.7,-349.1 		"/>
		<path class="st27" d="M223.9-360c0,0-0.9,17.4-3.5,19.7c-2.6,2.4,6.8-0.6,11.5-0.6c4.7,0,4.1,7.9,8.8,9.1
			c4.7,1.2,27.4,4.7,27.4,4.7l25.9-4.4l8.2-4.7l-0.9-15l-18-9.4l-48.3-4.4L223.9-360z"/>
		<polygon class="st15" points="248,-392.4 301.9,-389.7 313.4,-383.5 330.2,-386.6 358,-391.9 383.1,-382.2 343.4,-363.2 
			331.5,-348.7 295.7,-355.3 223.8,-361.3 225.3,-379.1 		"/>
		<path class="st24" d="M195.5-363c0,0,1.3-5,5-6.5c8.3-3.5,29.6-7.9,29.6-9.1c0-1.7-7.8,47.2-24.9,75.1L195.5-363z"/>
		<path class="st26" d="M207.7-318.2c0,0-7.4,58.7,22.8,91c20.9,22.4,12.7-41.9,12.7-41.9l6.1-32.9L207.7-318.2z"/>
		<path class="st18" d="M358.6-298.4l56.7-2c0,0-1.5,29.4-5.5,38.6"/>
		<path class="st23" d="M249.4-239.6c0.4,3.1,5.7,33.1,5.7,33.1s-5.3,8.1,16.3,21.6c1.3,0.8,29.1,17.7,29.1,17.7s31.3-0.9,32.7-2.2
			c1.3-1.3,37.1-28.3,37.1-28.3l-6.6-28.3l-56.1,9.3l-44.6-17.2L249.4-239.6z"/>
		<path class="st28" d="M263.3-228.3l10.9,11.2l22.4,17.9l30.3,4l20.3-10.4l5.9,9.2l-8.8,13.8l-32.4,10.7l-27.4-6.6l-10.3-6.9
			l-13.5-8.4c0,0,17.4,18.5,30.6,25.1c13.2,6.6,31.2,4,35.3,4c4.1,0,28.3-14.3,29.7-18.6c1.5-4.3,16.8-44,16.8-44l5.6-13.5l-8.2-8.1
			l-80.3,9.2l-32.7-7.2l-0.9,11.5l9.1,2.9L263.3-228.3z"/>
		<polygon class="st8" points="271,-241.4 285.1,-220.2 303.7,-207.8 324.9,-207.8 341.2,-218.9 355.8,-234.8 369.9,-247.1 
			373,-242.7 367.2,-233.5 363.3,-217.6 362.4,-203.9 359.7,-191.5 357.5,-185.3 386.2,-227.3 395.9,-263.5 365.5,-254.6 
			268.8,-253.8 		"/>
		<polygon class="st26" points="271.3,-277.2 259.8,-257.4 334.3,-251.9 369.6,-251.3 376.1,-270.2 360.2,-285.5 320.9,-275.3 		"/>
		<path class="st15" d="M349-302.2l3.5,22.5l16.3,5.1l2.8,17l1.2,7.3l2.2,9.6l9.6-17.7l5.4,1.6l-4.9,20.3l-14.1,21.6l-9.9,19.4
			l-7.5,16.8c0,0,35.9-36.2,46.5-59.2s10.2-30,10.6-28.3l-30.5-23.2L349-302.2z"/>
		<path class="st29" d="M271.3-256.2l-2.4,9.4c0,0,19.1,10.6,20.3,10.6c1.2,0,45.3,0.3,45.3,0.3l21.8-9.1l0.3-7.1l-15.9-1.8
			l-19.7,1.5l-30.9-2.4L271.3-256.2z"/>
		<polygon class="st30" points="308.5,-258 273.6,-269.9 263.5,-263.7 263.1,-258 275.6,-239.6 257.5,-244.5 258.6,-236.5 
			257.8,-222 260.4,-205 259.3,-193.7 244.1,-225.1 235.2,-258.2 250.5,-288.2 272.1,-293.5 304.1,-282.7 318,-262.4 314,-256.4 		
			"/>
		<polygon class="st22" points="242.7,-299.4 241.6,-279.7 227.7,-276.7 228.6,-269.4 231.3,-257 231.6,-250.2 223.9,-242.9 
			228.9,-228.2 254.5,-199.9 262.5,-193.1 251,-218.7 256.9,-230.5 254.8,-244 241.5,-253.7 249.8,-263.2 269.7,-299 		"/>
		<polygon class="st28" points="285.6,-302.3 272.5,-285.8 264.2,-281.8 256.7,-272.1 252.7,-261 249.6,-254.4 243,-259.1 
			245,-272.1 250.5,-282 259.5,-294.4 247.6,-296.1 232.2,-294.2 224.9,-292.2 222.7,-294.8 222.2,-305.2 257.3,-300.3 		"/>
		<path class="st24" d="M276.1-278.9c0,0-0.2,6.4,0.9,6.4c1.1,0,9,1.8,9,1.8l11.9,6l14.8,6.2l16.3-2l9-3.1l5.7-0.2
			c0,0,7.3,3.1,7.3,2.4c0-0.7,5.1-13.9,5.1-13.9l-1.8-8.2l-75-2.2L276.1-278.9z"/>
		<polygon class="st31" points="283.6,-275.4 292.4,-271.4 297.7,-274.3 309.8,-269 320.4,-266.6 332.4,-272.5 342.3,-268.8 
			347.6,-273.8 335.4,-282.7 304.1,-282.7 285.3,-281.6 		"/>
		<polygon class="st22" points="286,-241.6 284.5,-238.6 294.4,-233.8 302.3,-238.4 320.9,-237.3 324.6,-232.3 334.9,-233.1 
			340.7,-235.7 331.5,-239.1 351.3,-242.7 364.6,-248.1 334.3,-226.6 317.2,-221.7 301.2,-224.7 286.3,-230.8 273.5,-240 
			265.6,-246.9 257.6,-255.7 		"/>
		<path class="st28" d="M277.1-239.5l24.4,11.8l11.6,1.3h12.9L348-237c0,0-19,15.2-28.7,14.7C309.6-222.7,304.5-218.7,277.1-239.5z"
			/>
		<polygon class="st29" points="288.5,-241.3 305.4,-238.2 295.8,-230.8 283.8,-237.5 283.7,-240.2 		"/>
		<path class="st29" d="M318.8-238.2l4.9,8.6c0,0,6.4-0.2,6.8-0.2c0.4,0,11-4.3,11-4.3l-2-3.6l-6.1-1.7L318.8-238.2z"/>
		<polygon class="st29" points="226.3,-337.9 231.3,-316.2 264.5,-308.5 290.7,-320.6 297.2,-337.3 244.8,-340 		"/>
		<polygon class="st28" points="248.6,-361.8 236.9,-355.9 236.3,-343.5 243.9,-344.4 255.1,-339.4 255.1,-334.7 243,-340 
			254.2,-331.2 276.6,-329.7 286,-337 271.6,-339.1 286.3,-342.6 282.2,-352.1 269.8,-360.3 		"/>
		<path class="st29" d="M316.5-331l-22.1,20.1l-11.7,13l-5.7,4.2c0,0,3.5,10.6,4.6,10.6c1.1,0,22.3-7.7,22.3-7.7s24.1,7.7,24.9,7.7
			c0.9,0,19.6,6,19.6,6l5.3-8.6l-4.6-17.9l-16.6-22.7L316.5-331z"/>
		<polygon class="st30" points="334.6,-312 334.7,-298.1 334.2,-281.4 350,-275.1 354.3,-279.5 355.6,-289.7 351,-295.6 
			352.5,-284.7 347.2,-281.1 336.9,-288.8 		"/>
		<polygon class="st26" points="306.8,-326.6 308.3,-305 320.9,-299.7 329.6,-309.4 304.5,-321.3 322.6,-328.8 334.9,-309.8 
			332.5,-283.5 319.9,-275.2 300.1,-284.7 		"/>
		<polygon class="st30" points="300.1,-311.8 296.4,-301.4 288.4,-298.6 278.3,-293.7 280.7,-289.1 290.9,-289.7 296.2,-295.5 
			301.5,-301.7 302.3,-285.8 280.5,-278.7 275.2,-285.3 273.2,-291.5 283.6,-301.7 		"/>
		<polygon class="st30" points="304.3,-315.3 302.3,-299.9 304.8,-290.8 311.9,-286.1 320.4,-285.5 328.4,-289.4 332.6,-299.7 
			330.4,-315.6 335.7,-301.9 335,-286 339,-279.8 345.4,-277.8 350,-275.1 345.8,-273.6 336.3,-276.9 331.3,-278.3 324.4,-273.6 
			318.6,-269 309.4,-273.4 302.1,-279.9 298.1,-280.5 294.8,-280.7 288.4,-277.8 285.6,-276.1 282,-276.3 276.1,-278.9 
			272.5,-285.8 272.5,-292.4 278.3,-282.9 290.9,-286.2 295.9,-288.6 297.9,-298.3 299.5,-307 		"/>
		<polygon class="st28" points="318.5,-325.3 307.2,-321.3 303.4,-312.7 296.4,-309.6 307.6,-332.1 323.5,-332.3 332.8,-320.9 
			336.6,-306.7 328.2,-317.1 322.6,-324.2 		"/>
		<path class="st26" d="M357.2-455.1L339-443.3l-2.1,34.7l18,15.3l22.7,14.4l24.7-4.7c0,0-12.4-29.7-12.4-30.6
			c0-0.9-6.8-30.3-6.8-30.3l-7.9-12.1L357.2-455.1z"/>
		<path class="st27" d="M368.6-451.1l11.9,16.8l-7.1,5.3l-1.8,14.6l12.4,10.6l-8.4,5.7l17.7,3.5l1.3,14.1l19.4,8.4
			c0,0-7.5-34.4-8.8-39.7c-1.3-5.3-10.6-33.1-15-33.1c-4.4,0-4.4-13.7-12.8-11.5C369-454.2,368.6-451.1,368.6-451.1z"/>
		<polygon class="st24" points="358.8,-467.4 327.1,-437 279.4,-402.1 293.5,-391.1 265.3,-387.1 244.5,-392.8 285.1,-421.5 
			304.1,-440.5 329.7,-457.7 354.9,-471.8 		"/>
		<path class="st18" d="M363.7-386.6l-18.1-19l-1.3-19l0.9-18.5l9.3-7.9l19,2.6l20,6.6c0,0-5.6-10.9-14.6-16.5
			c-9-5.6-18.8-9.3-18.8-9.3l-18.7,15.9l-31.5,23.5l-24.7,20.3l-13.2,8.4l1.8,4.9l29.6,9.3l15.9,7.1L363.7-386.6z"/>
		<polygon class="st18" points="309,-340.3 303.9,-329.9 324,-329.9 332.1,-330.1 327.1,-342.7 		"/>
		<polygon class="st8" points="337.2,-308.9 325.1,-325.1 319.6,-329.2 309.8,-327.9 302.8,-318 292.8,-305.6 292,-310.9 
			303,-328.4 308.3,-335 315.4,-333.9 328.2,-331 331,-332.1 		"/>
		<polygon class="st25" points="395.9,-371.6 399.2,-357.9 416.7,-355.7 413.6,-376.3 		"/>
		<polygon class="st32" points="352,-324.4 403,-336.8 401.5,-356.5 407.2,-356.5 409.6,-318.5 394,-300.3 363.9,-300.1 
			347.8,-312.3 		"/>
		<polygon class="st27" points="400.8,-355.1 403.9,-335.9 390.6,-329.9 378.5,-328.4 378.7,-337.2 393.1,-344.9 		"/>
		<path class="st26" d="M382.1-322.8l-14.7,4.2l-14.4-4l5.4,8.8l-0.9,8.8l32.3,2.6l9.3-5.5l8.6-13.9l0.9-12.1c0,0,2.7,15.2,2.7,18.3
			c0,3.1,0.2,13.2,0.2,13.2l-23.9,5.4l-33.6-3L337.5-314l-1.4-18.8l33.6,4.2L382.1-322.8z"/>
		<polygon class="st27" points="369.3,-353.7 351.9,-339.7 362.8,-335.7 357.8,-326 340.7,-328.4 337.7,-328.4 340.7,-318.2 
			347.5,-308.1 372.5,-302 383.4,-301.6 369.7,-296.9 341.8,-304.4 333.5,-324 332.8,-344.3 337.8,-353.8 365.5,-356.9 		"/>
		<polygon class="st28" points="357.2,-338.2 359,-332.9 349.9,-334.4 364.9,-322.3 380.2,-320.9 389.3,-325.6 389.3,-331.2 
			380.5,-330.6 381.7,-337.9 393.1,-338.5 397.8,-337.3 396.4,-341.8 395.2,-350.3 379,-358.8 364.6,-355.3 363.4,-345.6 		"/>
		<path class="st18" d="M359.3-358.9c0,0,24.1-2.8,37.9,14.5c13.8,17.4,2.9-5,2.9-5l-0.6-13.5l-2.9-9.1l-25.3-4.4l-14.7,7.4
			L359.3-358.9z"/>
		<polygon class="st8" points="367.5,-385.8 348.8,-384.9 331,-377.1 325.3,-359.7 327.3,-351.1 361.3,-357.5 364.6,-366.6 
			376.5,-372.7 387.1,-371 402.3,-370.3 413.4,-366.1 410.9,-376.3 399.5,-382.4 382.5,-386.6 		"/>
		<path class="st8" d="M267.8-390.5c0,0,24.3,1.3,30.9,7.4c13.1,12,2.7,11,1,14.9c-1.8,3.8,4.9,14.1,4.9,14.1l-34.1-9.9l-5-5.6
			l-13.5-12.7L267.8-390.5z"/>
		<path class="st24" d="M264.4-391.1c4.1-0.3,24.7,7.1,26.2,7.4c1.5,0.3,8.5,11.2,8.5,11.2L285-374l-6.5,0.3l4.4,3.6l-7.7-2.6l2,3.1
			l-8.8-3.3l-8.1-4l-0.6-5.6L264.4-391.1z"/>
		<path class="st33" d="M397.4-353.1c0,0,22.4,0.7,24.9,5.8c4,8.1-3.2,36.1-7.9,40.6c-4.8,4.5-22.9,7.4-25,7.2
			c0,0-32.3,0.9-41.3-6.3c-5.5-4.4-6.2-7.5-6.8-8.8c0,0,1.1,11.3,14.9,14.8c13.8,3.6,35.4,2.9,35.4,2.9l20.1-2.8c0,0,2.5-0.3,5.1-1
			c2.5-0.8,8.7-13.5,8.5-16.1c-0.2-2.5,8.1-26.6,1.2-32.4C419.5-355.1,398-353.1,397.4-353.1z"/>
		<path class="st34" d="M238.6-360.2c0,0-22.6,0.3-25.2,5.6c-4.2,8.4,2.5,37.6,7.3,42.3c4.7,4.8,26.3,8,28.4,7.8
			c0,0,30.5,3,38.6-5.7c9.8-10.5,12-23.5,13-28.4c-5.1,32.6-14.7,33.5-21.3,35.2c-14,3.5-35.8,1.7-35.8,1.7l-20.2-3.2
			c0,0-2.6-0.3-5.1-1.2c-2.5-0.8-8.6-14.2-8.3-16.8c0.3-2.6-7.6-27.8-0.6-33.8C216.3-362.6,238-360.1,238.6-360.2z"/>
		<path class="st31" d="M351.9-333.3c0,0,9.1,9.1,22.7,7.4c13.7-1.6,15.2-8.5,16.3-8.7C392-334.8,376.4-310,351.9-333.3z"/>
		<path class="st31" d="M238.6-347c0,0-4.1-1.2-3-3.2c1.1-2,7.3-6.9,17.3-7.1C247.4-356.2,238.3-352.9,238.6-347z"/>
		<path class="st31" d="M278.7-337l-4.6,0.4c0,0,2.1,0.9-0.4,2.7c-0.8,0.6-19.8,4.3-30.7-2.3C247.9-331.2,269.5-325.6,278.7-337z"/>
		<path class="st31" d="M434.9-356c-0.7,0.6-10.7-0.3-10.7-0.3c-6-2.5-24.1-4.4-31.1-4.7c-7-0.3-30.2,0-38.6,0.9
			c-8.1,0.9-23.8,4.6-26.5,6c-2.4,1.2-6,3.1-9.9,3.1c-3.9,0-6.9-2.4-9.4-3.9c-2.5-1.5-17.9-6.5-26-8c-8.3-1.5-31.5-3.6-38.4-3.8
			c-7-0.2-25.2,0.3-31.4,2.3c0,0-10,0.1-10.7-0.5c-0.7-0.6-2.3,7.1-1.8,9.9c0.5,2.8,3.3,18.1,3.5,23.3c0.2,5.2,2.6,20,9.6,24.9
			c7,5,46.3,12,62.4,7.9c0,0,13.2-2.5,19.3-7.1c6.1-4.5,9.5-27.5,12.2-28.3c0,0,2.9-5.1,9.5-5.3c0.1,0,0.2,0,0.4,0
			c7.7,0,10.4,6,10.4,6c2.6,1,4.3,24.1,10,29.1c5.7,5,18.7,8.5,18.7,8.5c15.7,5.3,55.5,1.3,62.8-3.1c7.4-4.4,10.9-19,11.5-24.1
			c0.6-5.2,4.6-20.2,5.3-23C436.7-348.8,435.7-356.6,434.9-356z M301.1-344.5c-0.2,17.4-7.5,33.1-14,37.7
			c-6.4,4.6-28.8,6.2-41.3,4.2c-12.5-2.1-26.7-5-30.5-9.1c-3.8-4.2-5.4-15.8-6.2-22.5c-0.8-6.7-1.6-18.1,3.1-22.2
			c4.7-4.2,14.7-3.5,17.7-3.8c3-0.3,15.9-0.3,32,1c16.2,1.4,29.2,4.7,29.2,4.7C302.5-351.7,301.1-344.5,301.1-344.5z M425.6-325.9
			c-1.3,6.6-3.9,18.1-7.9,22c-4.1,3.9-18.7,5.2-31.2,6.3c-12.6,1.1-34.7-1.8-40.7-6.8c-6.1-5.1-12.1-21.3-11-38.6
			c0,0-0.9-7.3,10.7-9.4c0,0,13.2-2.3,29.5-2.4c16.2-0.1,29,0.9,32,1.4c3,0.6,12.9,0.7,17.3,5.2
			C428.6-343.8,426.9-332.6,425.6-325.9z"/>
		<path class="st17" d="M407.5-357.4c0,0,11.6,0.5,14.1,1.8c2.6,1.3,7.9,0.2,9.9,0.5c2,0.3,1.8,1.5,1.3,2.1
			c-0.4,0.6-8.2-0.4-10.2-0.8c-1.9-0.4-8-1.6-10.2-1.9C410.4-356,406.7-355.6,407.5-357.4z"/>
		<path class="st17" d="M424.3-349.7c0,0,3.3,0.3,3.8,6.7c0.6,7.7-0.7,20.7-3,27.1c-2.3,6.4-1.5,6.3-4.9,11.3
			c0.5-0.4,6-5.1,8.3-27.9C430.5-351.5,424.4-349.5,424.3-349.7z"/>
		<path class="st17" d="M334.6-355.1c0,0,20.7-3.5,24.7-3.9c4.1-0.4,9.5-1.3,10-0.5c0.5,0.8-0.8,1.2-0.8,1.2s-26.7,3.1-29.9,4.3
			c-3.2,1.3-7,1.4-7.1,0.9C331.4-353.5,332.7-355,334.6-355.1z"/>
		<path class="st17" d="M320.9-348.8c0,0,2.9-0.6,3.2,0.3c0.3,0.9,0.2,7.9-0.1,8.4c-0.3,0.4-2.1,0.4-2.9-0.3
			C320.2-341.1,320.9-348.8,320.9-348.8z"/>
		<path class="st34" d="M297.8-353.6c0,0,4.3,2,5.3,4.9c1,2.9,1,8.4,1,8.4S308.1-351.8,297.8-353.6z"/>
		<path class="st34" d="M279.4-360c0,0-16.3-3.2-29-3.7C264.2-361.3,273.8-360.3,279.4-360z"/>
		<path class="st35" d="M233.5-364.6c0,0-21.7,0.2-23.2,0.8C217.1-363.7,224.4-363,233.5-364.6z"/>
		<path class="st35" d="M300.6-322.3c0,0-3.2,16.8-19.1,20.4C285.2-301.2,298.8-307.3,300.6-322.3z"/>
		<path class="st31" d="M286.9-382c0,0-5.1-4.9-11-6.6c-6-1.8-14.8-3.5-17.4-3.5c-2.6,0-7.7-0.2-7.7-0.2l-11.3,9.7
			c0,0,19.2,2.4,23,6.6c3.8,4.2-2.2-5.3-2.2-5.3l11,3.5l-5.3-4.2c0,0,7.3-0.2,11.3,1.5c4,1.8-0.4-2.6-0.4-2.6L286.9-382z"/>
		<path class="st31" d="M351.8-295c0,0,6.8,7.6,0.7,17.1C355.8-279.8,359.1-289.1,351.8-295z"/>
		<path class="st24" d="M373.9-384c0,0-24.1-4.4-34.9,4.6c-10.8,9-4.6,11.9-4.6,11.9l3.5-4.4l5.3,4.6c0,0,4.6-7.7,13.5-5.3
			c8.8,2.4,0.7,3.5,1.5,5.3c0.9,1.8,4.9-0.4,13-2.9C379.4-372.5,373.9-384,373.9-384z"/>
		<path class="st31" d="M343-375.2c0,0,11.3-7.9,19.4-8.8c8.2-0.9,15.5,0.4,18.5,0.7c3.1,0.2,11,3.8,11,3.8l-13.7-1.8
			c0,0,15.9,2.9,17,6c1.1,3.1-10.6-2.4-13.2,0c-2.6,2.4,6.6,3.3,6.6,3.3s-14.3-0.4-18.3,1.3c-4,1.8-10.6,0-7.3-1.5
			c3.3-1.5,5.7-3.5,5.7-3.5l-7.9,1.5c0,0,4.2-2.2,0.7-2.2C358-376.5,343-375.2,343-375.2z"/>
		<polygon class="st33" points="349.9,-339.4 360.8,-348.8 370.9,-349 380.8,-347.8 389.5,-340.1 379.1,-335.5 362.4,-336.8 		"/>
		<polygon class="st33" points="282.6,-342.9 272.5,-353.6 262,-355 251.7,-355 241.9,-348.4 252,-342.6 269.4,-341.8 		"/>
		<path class="st26" d="M327.9-322.2"/>
		<polygon class="st29" points="358.2,-347.6 356.6,-341.4 362,-336.8 374.6,-335.8 381.4,-339 382.2,-346.9 		"/>
		<polygon class="st29" points="274.8,-351.6 275.6,-345.3 269.5,-341.4 256.3,-342.1 249.8,-346.2 249.9,-354.2 		"/>
		<path class="st31" d="M345.6-338.8c0,0,7.1-12.1,17.3-13.7c10.2-1.7,14.2,0,16.1,0.3c1.9,0.3,8.4,5,10.2,7.1
			c-11-7.8-18.5-7.7-26-5.4c0,0,1.5-1,6.8-0.6c4.9,0.4,12,2.6,18.6,7.6c1.1,0.9,2,1.9,3.3,3.5c-0.9,0.8-7.3,2.4-7.3,2.4l2.9-2.3
			c0,0-0.8-1.8-3.1-3.5c-2.2-1.6-2-1.4-6.6-3.3c0.9,2.4-1.1,7-4.4,9c-4.4,2.6-10.8,1.2-13.2-3.4c-1.6-3.1-1-5.5-1-5.5
			s-5.4,4.5-5.1,5c0.3,0.5,0.6,2.3,2.4,3.4c1.8,1.1,4.8,1.6,5.1,1.6C361.8-336.7,347.8-337.4,345.6-338.8z"/>
		<path class="st31" d="M282.5-342.6c-4.2-5.4-7.8-14.8-27.1-13.6c-10,0.7-15.7,7.9-15.6,7.9c0.1,0,6.9,2.1,9.4,4
			c-2-2.9-5.2-4.4-5.2-4.4s1.1-2.3,6.8-3.4c1.3-0.2,2.8-0.4,4.5-0.5c-2.3,1.9-1.7,8.2,2,9.9c3.7,1.7,10.7,1.2,11.6,0.9
			c0.9-0.3,5.8-4.1,2.5-8.6C274.9-348.2,282.5-342.6,282.5-342.6z"/>
		<path class="st31" d="M268-298.9c0,0-24.2,18.6-20.2,36.8c0.9,4,3.3,2.4,3.3,2.4s-0.8-10.8,2.9-18.3
			C257.8-285.5,268-298.9,268-298.9z"/>
		<path class="st31" d="M245.8-254.2c0,0-4.5,0.4-2.1,3.9c2.5,3.5,6.6,4.1,6.6,4.1L245.8-254.2z"/>
		<path class="st31" d="M351.3-297.2c0,0,14.1,11.3,14.3,13.9c0.2,2.6,10.6,7.9,10.6,7.9s-7.7-9.5-8.8-10.4
			c-1.1-0.9-10.2-10.8-11.7-11C354.2-297,351.3-297.2,351.3-297.2z"/>
		<path class="st31" d="M368.6-273.8c0,0,12.1,15.5,5.7,26.5C373.6-259.1,368.6-273.8,368.6-273.8z"/>
		<path class="st31" d="M257.1-256.9c0,0,19.3,26.8,44.4,31.9C278.1-234.6,260.6-253.1,257.1-256.9z"/>
		<path class="st31" d="M307.7-223.6c0,0,6,1.8,12.7,0.7C319.3-221.4,309-220.9,307.7-223.6z"/>
		<path class="st31" d="M367.3-248.9c0,0-22.5,23.2-42.8,23.9C340.9-228.9,367.3-248.9,367.3-248.9z"/>
		<path class="st31" d="M309.7-243.8c0,0,2.6,1,7.5,0.6c4.9-0.4-0.3,2.8-0.3,2.8h-6.5L309.7-243.8z"/>
		<path class="st31" d="M321.6-243.6l1.9,0.1c0,0,1,3.4,0.4,3.1c-0.6-0.3-1.9-0.7-1.9-0.7L321.6-243.6z"/>
		<path class="st31" d="M326.5-243.6l0.3,2.2h4l0.6-1.2l3.7-0.4l-0.3-1.3C334.7-244.3,328.5-243.3,326.5-243.6z"/>
		<path class="st31" d="M337.8-244.9l-0.6,2.1c0,0,1.3,0.9,4.1,0.1c2.8-0.7,4.6-2.2,4.6-2.2S340-243.2,337.8-244.9z"/>
		<polygon class="st31" points="306.1,-244.5 306,-241.4 307,-241.3 307.5,-244.3 		"/>
		<path class="st31" d="M296.1-245.7c0,0,3.9,1.9,7.5,1.3c0.2,1-0.9,2.4-0.9,2.4l-6.4-1.2L296.1-245.7z"/>
		<polygon class="st31" points="288.7,-247.2 287.7,-245.4 283.7,-247.1 283.6,-248.4 284.6,-248.6 		"/>
		<polygon class="st31" points="292,-246.4 291.7,-244.9 292.7,-244.5 293,-245.7 		"/>
		<path class="st31" d="M250.3-343.6c0,0,10.7,0.4,20.8,2C259.7-340.7,250.3-343.6,250.3-343.6z"/>
		<path class="st31" d="M383.2-337.7c0,0-15.4,1-21.7,0.6c0.9,0.5,5.3,1.5,13.3,0.8C382.7-336.9,383.2-337.7,383.2-337.7z"/>
		<path class="st31" d="M277.7-344.6c0,0,2.9,1.5,3.2,2c0.2,0.4-2.6-0.4-4.5,0.1c-1.9,0.6-4.1,0.7-4.1,0.7s1.1-0.5,2.5-0.9
			C276.1-343.1,277.7-344.6,277.7-344.6z"/>
		<path class="st31" d="M282.1-343.4c-1.9-2.9-3.8-6.2-6.8-8.5c-5.6-4.2-12.7-6.2-15-5.9c2.7-0.8,13.1,2.6,15.1,3.5
			C278-353.1,280.8-345.6,282.1-343.4z"/>
		<circle class="st34" cx="363.9" cy="-346.5" r="1.2"/>
		<circle class="st34" cx="258.6" cy="-351.5" r="1.2"/>
		<path class="st31" d="M206-307.3c0,0,0.9,51.6,12.2,68.2c11.3,16.6,44.8,52.7,46,54.2c1.2,1.5,18.4,21.8,45.1,21
			c-40.6-7.4-51.1-36.4-84-72.5C210-253.3,209.1-290.6,206-307.3z"/>
		<path class="st31" d="M415.4-297.2c-1.6,18.6-4.1,47.3-14.4,60.8c-9.4,12.4-41,55.4-51.6,58.2c14.1-11.6,36.6-42.7,49.2-63.7
			C411.2-262.7,414.7-289.8,415.4-297.2z"/>
		<path class="st31" d="M312.2-164.6c0,0,14.1,2.1,31.8-10C341-171.4,326.6-158.4,312.2-164.6z"/>
		<path class="st31" d="M239-209.9c0,0,1.9,72.7,57.6,73.6C228.6-133.2,239-209.9,239-209.9z"/>
		<path class="st31" d="M301.9-135c0,0,70.9,17.1,77.7-72.4C375.2-107.2,301.9-135,301.9-135z"/>
		<path class="st31" d="M222-235.7c0,0-4.9,66.2,20.3,87.4C223.8-183.1,222-235.7,222-235.7z"/>
		<path class="st31" d="M470.1-239c0,0-30.2-22.9-55.3-1.1C443-251,470.1-239,470.1-239z"/>
		<path class="st31" d="M395.1-225.4c0,0,5.8,66.2-24.2,87.4C393-172.8,395.1-225.4,395.1-225.4z"/>
		<path class="st31" d="M435.9-462.1c-16.8-16.3-31.4-20.1-41.5-21.2c5-8.3,10.3-20.8,5.6-31c-1.7-3.7-3.7-1.7-3.7-1.7
			s3.1,10.4,1,18.5c-1,3.8-3.1,9.3-5.1,13.9c-0.8-0.1-1.7-0.1-2.4-0.2c0,0,0,0,0,0c4-11.9,2.8-18-5.4-30.6
			c-27.1-31.3-86.6-15.8-96-15.3c-9.3,0.4-40.5,17.7-53.8,26c-13.3,8.4-25.8,28.3-31.6,34.4c-5.8,6.2-21.8,47.7-22.7,57.8
			c-0.9,10.2,1.3,13.7-2.2,18.5c-3,4.1-7.2,30.2-7.3,32.2c0,2.1,0.6,7.5,0.6,7.5s2.4,52.1,9.1,60.3c0.2-6.4,1.3-7.9,1.3-7.9
			s13.5,41.5,15,43.9c1.5,2.4,1.3-5.5,1.3-6.8c0-1.3,5.1,13.9,7.1,17.7c2,3.8,1.8-3.3,1.3-5.1c-0.4-1.8,5.3,7.9,7.1,8.8
			c1.8,0.9,0-9.7,0-9.7s-3.9-14-5.1-28.9c-1.1-14.6-1.4-30.5-2.6-32.4c-2.4-4-4.4-14.6-4.9-22.1c-0.4-7.5-1.1-16.8-1.5-17.4
			c-0.3-0.5-0.5-13.7,2.8-13.3c10.4,1.3,30.2-12.4,35.4-14.1c5.2-1.7,86.5-60,123.1-86.4c8.8,0.7,28.3,24.5,36.1,34.3
			c7.9,9.8,18.5,72.7,18.5,72.7s4.5,1.8,9.8,2.6c4.5,0.7,10.4-0.7,11.2,1c1.5,3.6,1.1,13-2.1,22.2c-1.5,4.4-2.5,11.7-3.6,16.6
			c-1.4,5.8-3.6,9.4-5.2,13.4c-1.4,3.4-6.4,6.5-10.4,7.6c-0.6,3.2-0.4,5.9-0.9,8.7c-3.5,20.3-10.2,46.6-10.2,46.6s6.3,2.9,10.7-5.9
			c3.3-6.6,4.6-11.7,5-13.8c-0.4,2.5-1.2,8.2,1.2,5.4c2.9-3.5,8.5-25.1,8.5-25.1s-4.9,21.3,1.8,11.5c6.3-9,9.7-51.3,10.2-57.1
			c2-3.2,13.2-24.9,16.8-41.3C472.2-431.3,435.9-462.1,435.9-462.1z"/>
		<path class="st31" d="M201.2-246.1c0,0-61.9-9-44.7,0.6C167.1-239.6,201.2-246.1,201.2-246.1z"/>
		<path class="st24" d="M384.3-505.1c0,0-5.3-9.4-24.1,0.9c-10.7,5.8-27.9,21.2-47.8,39.8c-46.5,43.4-107.6,104.1-133.5,100
			c25.3,16.5,159.1-121.9,177.2-134.2C369-507.4,384.3-505.1,384.3-505.1z"/>
		<path class="st8" d="M319.1-474.5c0,0-110.4,102.9-132.9,90.9C235.7-402.1,319.1-474.5,319.1-474.5z"/>
		<path class="st24" d="M329.3-515.1c0,0-56.5,0-128,108.6C202.6-422,262.2-512,329.3-515.1z"/>
		<path class="st8" d="M319.4-527.9c0,0-47.4-6.9-120.9,77.7C201.6-463.3,262.8-533.4,319.4-527.9z"/>
		<path class="st8" d="M445.9-359.1c0,0,15-36.2-27.5-107.5C426.8-462.1,462-402.8,445.9-359.1z"/>
		<path class="st22" d="M299-305.9c0,0-1.8,8.5-2.9,14.1c-1.1,5.6,5.1,10.9,5.1,10.9L299-305.9z"/>
		<polygon class="st22" points="333.6,-297.6 332.6,-285.5 331.3,-280.2 336.6,-283.5 335.8,-302.5 		"/>
		<polygon class="st36" points="273.5,-255.9 276.3,-245.4 282.3,-243.6 280.5,-249.6 282.4,-253.7 		"/>
		<polygon class="st36" points="353.4,-253.2 351.3,-243.6 346.9,-241.9 348.2,-247.4 346.8,-251.2 		"/>
		<path class="st31" d="M277.4-256c0,0-2.8,1.3-2.2,5.6c0.6,4.3,1.6,5,1.6,5s-11.4-5.8-13.5-7.3c-1.9-1.3-5.5-4.3-5.2-4.2
			C258.4-256.7,277.4-256,277.4-256z"/>
		<g>
			<path class="st31" d="M371.2-250.2c-13.1-4.4-25.8-5.2-30.2-5.5c-4.4-0.3-18.9,1.9-23.9,1.9c-5,0-18.8-1.7-23.9-3
				c-9.3-2.3-36.9-0.7-36.9-0.7s2.9,3.1,7,1.6c2-0.7,22.5,2.9,23.4,3.2c0.9,0.3,1.7,2.7,1.8,3.8c0.1,1.4,0.9-2.9,2.1-3.1
				c1.3-0.2,4.9,0.4,6.5,1.7c1.6,1.3,1.9,3.9,2.3,5.1c0.3,0.9,1.4-3.5,3.2-4.1c1.8-0.7,4.3-0.6,6.2,0.1c1.9,0.7,4,1.4,5.4,5.7
				c0.7-1.9,3-5.6,6.7-5.5c4.6,0.1,5.4,3.5,6.6,5c1.5-2.9,2.5-6.1,7.9-6c1.4,1,1.7,3.8,1.7,4.6c1-1,0.8-0.3,3.2-5.1
				C348.5-251.5,361.3-250.6,371.2-250.2z"/>
			<path class="st31" d="M337-245.4c0,0,0.1-0.1,0-0.2C337-245.4,336.9-245.3,337-245.4z"/>
		</g>
		<g>
			<path class="st31" d="M309.1-238c-26.2-1.7-47.1-15.6-47.1-15.6c15.7,12.2,33.9,16.3,49.9,17.1L309.1-238z"/>
			<path class="st31" d="M318.3-237.3l-2.2,0.5c27.3-0.1,48.9-10.2,51.9-13.4C349.8-240.3,318.6-237.4,318.3-237.3z"/>
		</g>
		<path class="st31" d="M352.2-252.9c0,0,0.3,7.1-1.4,9c-1.7,2,9.2-2.2,11.3-3.4c2.1-1.2,8.8-3,8.8-3S354.9-254.5,352.2-252.9z"/>
		<path class="st31" d="M281-298.1c0,0-11.6,6.5-2.7,17.5c3.3,4.1,8.7,4.9,10.1,3.4c0,0,5.3-3.5,9.5-4.1c4.2-0.6,9.8,6.7,14.9,8.1
			c5.1,1.5,6.9,0.5,9.2-0.5c2.3-1,8.1-6.1,10.6-5.8c7,0.8,7.5,5.2,12.6,5c5.1-0.2,5.2-1.1,6.5-2.2c0,0-2.7,3.9-7.3,3.7
			c-4.6-0.2-6-2.1-9.6-4c-4.2-2.2-12,8.1-16.2,8.1c-2.7,0-7-0.7-9.8-2.6c-3.5-2.3-6.8-8-10.6-8.3c-3.8-0.3-8.8,3.6-10.3,4.8
			c-1.5,1.2-8.8-1.5-10.8-4.3c-2-2.9-3.7-5-3.4-10.1C274-294.6,281-298.1,281-298.1z"/>
	</g>
	<g>
		<g>
			<path class="st15" d="M178.6-115.4c-1.6-0.5-3.3-0.7-4.9-0.4c-1.6,0.3-3.2,0.9-4.7,1.7c-1.5,0.9-3,1.9-4.4,3.2
				c-1.4,1.3-2.7,2.6-3.8,4c-1.2,1.4-2.2,2.8-3.1,4.2c-0.9,1.4-1.6,2.7-2.1,3.8c0.5,1.6,1.3,3,2.4,4.1c1.1,1.1,2.3,2.1,3.7,2.9
				c1.4,0.8,2.9,1.5,4.6,2c1.7,0.5,3.4,1,5.1,1.4c1.8,0.4,3.5,0.8,5.3,1.3c1.8,0.4,3.5,0.9,5.1,1.4h9.8c0,0.8-0.2,1.4-0.6,1.9
				c-0.4,0.4-0.9,0.8-1.5,1c-0.6,0.2-1.3,0.3-2.1,0.4c-0.8,0-1.6,0.1-2.4,0.1c-2.2,0-4.4-0.1-6.8-0.3c-2.3-0.2-4.7-0.5-7-1
				c-2.3-0.5-4.6-1.1-6.8-1.9c-2.2-0.8-4.3-1.8-6.2-3c-1.9-1.2-3.7-2.6-5.3-4.3c-1.6-1.6-2.9-3.6-4-5.7c0.8-1.7,2-3.5,3.5-5.4
				c1.5-2,3.2-3.9,5.1-5.7c1.8-1.8,3.7-3.5,5.7-5.1c2-1.5,3.8-2.7,5.4-3.5c0.8,0,1.6,0,2.5,0.1c0.8,0,1.6,0.2,2.4,0.4
				c0.8,0.2,1.6,0.5,2.4,1C177-116.8,177.8-116.2,178.6-115.4z"/>
			<path class="st15" d="M224-105.7c0,0.6-0.1,1.3-0.3,2.1c-0.2,0.8-0.4,1.7-0.7,2.5c-0.3,0.9-0.5,1.7-0.7,2.5
				c-0.2,0.8-0.3,1.5-0.3,2c1.1,1.2,2,2.2,2.9,3.1c0.9,0.9,1.8,1.6,2.6,2.2c0.9,0.6,1.8,1,2.7,1.3c0.9,0.3,2,0.4,3.2,0.4
				c-0.8,0.7-1.6,1.2-2.3,1.4c-0.8,0.2-1.6,0.1-2.3-0.1c-0.8-0.2-1.6-0.6-2.3-1.1c-0.8-0.5-1.5-1-2.3-1.6c-0.7-0.6-1.5-1.2-2.3-1.8
				c-0.8-0.6-1.5-1.1-2.2-1.5c-1.7,1.8-3.5,3.5-5.3,5.1c-1.8,1.6-3.6,3-5.4,4.2c-1.9,1.1-3.8,1.9-5.8,2.4c-2,0.5-4.1,0.4-6.4-0.2
				c-0.6-0.6-1.1-1.3-1.4-2.1c-0.3-0.8-0.6-1.6-0.7-2.4c-0.2-0.8-0.2-1.6-0.3-2.4c0-0.8,0-1.5,0-2c1.1-1.2,2.4-2.5,3.8-4.1
				c1.4-1.5,2.8-3.1,4.4-4.6c1.6-1.5,3.2-3,4.9-4.3c1.7-1.3,3.5-2.3,5.3-2.9c1.8-0.6,3.7-0.9,5.6-0.6
				C220.2-108.1,222.1-107.2,224-105.7z M217.4-105.7c-1.5,0-3,0.3-4.4,0.9c-1.4,0.6-2.7,1.4-4,2.3c-1.3,1-2.5,2.1-3.7,3.4
				c-1.2,1.3-2.2,2.6-3.2,4c-1,1.4-1.9,2.7-2.8,4.1c-0.9,1.4-1.7,2.7-2.4,3.9c2.2,0.5,4.4,0.5,6.4,0.1c2-0.5,3.8-1.2,5.5-2.2
				c1.7-1,3.3-2.2,4.7-3.5c1.4-1.3,2.8-2.6,4-3.8V-105.7z"/>
			<path class="st15" d="M236.7-111.9c0,1.5,0,3.1,0.1,4.6c0,1.5,0.2,3.1,0.4,4.6c0.2,1.5,0.5,3.1,0.9,4.6c0.4,1.5,1,3.1,1.8,4.6
				c0.7-1.5,1.5-3.2,2.4-5c0.8-1.8,1.8-3.5,3-5c1.1-1.5,2.5-2.8,4.1-3.9s3.5-1.5,5.8-1.5c0.8,0,1.7,0,2.8,0c1.1,0,2.1,0.1,3,0.3
				c1,0.2,1.8,0.5,2.4,0.9c0.7,0.4,1,1,1,1.8c-0.5,0.5-1.1,0.8-1.8,0.9c-0.7,0.1-1.4,0-2.1-0.2c-0.7-0.2-1.5-0.4-2.3-0.7
				c-0.8-0.3-1.5-0.5-2.3-0.7c-0.7-0.2-1.4-0.2-2.1-0.2c-0.7,0.1-1.3,0.4-1.8,0.9c-1.5,1-2.8,2.2-3.9,3.5c-1.1,1.3-1.9,2.7-2.6,4.2
				c-0.7,1.5-1.2,3-1.6,4.5c-0.4,1.5-0.6,3.1-0.8,4.5c-0.2,1.5-0.3,2.9-0.3,4.2c0,1.3-0.1,2.5-0.1,3.5c-1.5,0-2.8-0.3-3.7-0.9
				c-0.9-0.6-1.6-1.4-2.1-2.4c-0.5-1-0.9-2-1.1-3.2c-0.2-1.2-0.4-2.3-0.6-3.4c-0.2-1.1-0.4-2.2-0.6-3.1c-0.2-1-0.6-1.7-1.1-2.1
				v-15.5H236.7z"/>
			<path class="st15" d="M291-97.6c0,0.8,0.1,1.7,0.4,2.8c0.3,1.1,0.5,2.2,0.7,3.4c0.2,1.2,0.3,2.3,0.2,3.4c-0.1,1.1-0.5,2-1.3,2.8
				c-1.5,0.8-3.1,1.5-4.6,2.3c-1.5,0.7-3.1,1.3-4.6,1.7c-1.5,0.4-3.1,0.6-4.6,0.5c-1.5-0.1-3.1-0.5-4.6-1.3c1.5-0.8,3.1-1.4,4.6-1.9
				c1.5-0.5,3-1,4.3-1.6c1.4-0.6,2.6-1.3,3.8-2.2c1.1-0.9,2.1-2.1,2.9-3.6c0-1.5-0.2-3.1-0.6-4.6c-0.4-1.5-1-2.9-1.8-4.3
				c-0.8-1.3-1.8-2.6-2.9-3.7c-1.2-1.1-2.5-2.1-4.1-2.8c-0.7,0-1.5,0.2-2.2,0.5c-0.7,0.3-1.4,0.8-2,1.4c-0.6,0.6-1.1,1.2-1.4,2
				c-0.4,0.7-0.5,1.5-0.5,2.3c0,3.8-0.1,7.2-0.3,10.2c-0.2,2.9-0.3,5.7-0.4,8.3c-0.1,2.6,0,5.2,0.2,7.7c0.2,2.6,0.7,5.4,1.5,8.5
				c0,0.8-0.2,1.4-0.5,1.8c-0.3,0.4-0.7,0.7-1.1,0.9c-0.5,0.2-1,0.4-1.6,0.4c-1-2.6-1.8-5-2.2-7.1c-0.5-2.2-0.7-4.2-0.9-6.2
				c-0.1-2-0.1-3.9-0.1-5.7c0.1-1.8,0.1-3.7,0.2-5.7c0.1-1.9,0-4-0.1-6.1c-0.1-2.1-0.5-4.5-1-7c1-2.6,2.3-4.5,3.8-5.8
				c1.5-1.3,3.1-2.1,4.7-2.3c1.7-0.3,3.4-0.2,5.1,0.4c1.7,0.5,3.3,1.4,4.8,2.4c1.5,1.1,2.8,2.4,3.9,3.8
				C289.7-100.6,290.5-99.1,291-97.6z"/>
			<path class="st15" d="M325.1-103.6c-0.4,1.3-1,2.4-1.7,3.3c-0.7,0.9-1.5,1.7-2.4,2.3c-0.9,0.6-1.8,1.2-2.8,1.6
				c-1,0.4-2,0.8-3.1,1.1c-1,0.3-2,0.7-3,1c-1,0.3-1.9,0.7-2.8,1.1c-0.9,0.4-1.8,0.7-2.6,0.8c-0.9,0.1-1.7,0.1-2.5-0.1
				c-0.8-0.1-1.5-0.2-2.2-0.4c-0.7-0.1-1.2-0.2-1.7-0.1c-0.5,0-0.9,0.3-1.1,0.6c-0.3,0.4-0.4,1-0.4,1.9c0,0.6,0.3,1.3,0.9,1.9
				c0.6,0.6,1.3,1.2,2.1,1.7c0.8,0.5,1.7,0.9,2.6,1.2c0.9,0.3,1.7,0.5,2.3,0.5c1.3,0,2.8-0.1,4.4-0.4c1.6-0.3,3.2-0.5,4.9-0.6
				c1.6-0.2,3.3-0.2,4.9-0.1c1.6,0.1,3.1,0.5,4.4,1.1c-2,0.6-4.1,1.3-6.4,1.8c-2.2,0.6-4.5,1-6.8,1.1c-2.3,0.2-4.6,0.1-6.8-0.4
				c-2.2-0.4-4.4-1.3-6.3-2.6c-1.3-0.6-2.2-1.4-2.6-2.4c-0.4-1-0.6-1.9-0.4-2.9c0.2-1,0.5-1.9,1.1-2.9c0.6-0.9,1.2-1.7,1.9-2.4
				c0.6-2,1.6-3.6,2.8-5c1.2-1.4,2.6-2.5,4.1-3.5c1.5-1,3-1.8,4.6-2.6c1.6-0.7,3-1.4,4.3-2.1c1.3,0,2.5,0,3.5,0.1
				c1,0.1,1.9,0.2,2.8,0.6c0.8,0.3,1.6,0.9,2.3,1.6C323.7-106,324.4-105,325.1-103.6z M314.1-103.6c-0.9,0-1.9,0.2-3.1,0.6
				c-1.2,0.4-2.3,0.9-3.4,1.6c-1.1,0.7-2,1.4-2.8,2.2c-0.8,0.8-1.1,1.7-1.1,2.6c1.8,0,3.5,0,5.2-0.1c1.7-0.1,3.3-0.3,4.9-0.8
				c1.5-0.4,2.9-1.1,4.2-2.1c1.3-1,2.3-2.3,3.2-4c0-0.9-0.2-1.4-0.6-1.5c-0.4-0.1-0.9,0-1.6,0.2c-0.7,0.2-1.4,0.5-2.2,0.8
				C315.9-103.7,315-103.6,314.1-103.6z"/>
		</g>
	</g>
	<g>
		<path class="st17" d="M367.7-99.2c-0.5,2.3-1.4,4.2-2.6,5.8c-1.2,1.6-2.6,2.9-4.2,4c-1.6,1.1-3.4,2.1-5.3,2.9
			c-1.9,0.8-3.8,1.5-5.8,2.2c-1.9,0.7-3.8,1.4-5.7,2.1c-1.8,0.7-3.5,1.5-5,2.5l-2.7-3.1c-0.9-1.8-1.6-3.7-2-5.7
			c-0.4-2-0.6-4-0.6-6.1c-0.1-2.1,0-4.2,0.1-6.3c0.1-2.1,0.2-4.2,0.3-6.3c0.1-2.1,0.1-4.1,0-6.1c-0.1-2-0.4-3.9-0.9-5.8
			c3,0.7,6,1.4,9.2,2.2c3.1,0.8,6.2,1.9,9.2,3.3c3,1.4,5.9,3.3,8.6,5.5C363-105.8,365.4-102.9,367.7-99.2z M336.4-113.7l2.7,28.2
			c1.5-0.4,3.1-0.8,4.7-1.1c1.7-0.3,3.3-0.7,5-1.1c1.7-0.4,3.3-0.9,4.8-1.4c1.5-0.5,2.9-1.3,4-2.1c1.2-0.9,2.1-2,2.8-3.3
			c0.7-1.3,1-2.9,1-4.7c-2.6-4.5-5.9-8-10.1-10.6C347.2-112.4,342.2-113.7,336.4-113.7z"/>
		<path class="st17" d="M373.4-120.2c0.7,0.7,1.1,1.4,1.1,2.1c0.1,0.7-0.1,1.4-0.4,2.1c-0.3,0.7-0.8,1.4-1.5,2.1
			c-0.6,0.7-1.3,1.4-2,2.1v-2.8c0-0.7,0-1.4,0.1-2c0-0.7,0.1-1.3,0.3-1.8c0.2-0.5,0.4-1,0.8-1.3C372.1-120,372.7-120.2,373.4-120.2z
			 M376.1-103.5c0,1.4,0,2.9,0.1,4.6c0,1.7,0.1,3.4,0.3,5.1c0.2,1.7,0.4,3.5,0.8,5.1c0.4,1.7,0.9,3.2,1.7,4.6c0.7,0,1.1,0.1,1.2,0.4
			c0.1,0.3,0,0.6-0.1,1c-0.2,0.4-0.5,0.9-1,1.4v2.8c-1.4-1.4-2.6-3.2-3.6-5.5c-1-2.3-1.8-4.8-2.3-7.4c-0.5-2.6-0.8-5.2-0.7-7.9
			c0-2.6,0.4-5,1.1-7.1L376.1-103.5z"/>
		<path class="st17" d="M413.4-103c-0.5,1.4-1.1,2.6-1.8,3.6c-0.8,1-1.6,1.8-2.6,2.4c-0.9,0.7-1.9,1.2-3,1.7
			c-1.1,0.5-2.2,0.9-3.3,1.2c-1.1,0.4-2.2,0.7-3.2,1.1c-1.1,0.3-2,0.8-3,1.2c-0.9,0.5-1.9,0.7-2.8,0.8c-0.9,0.1-1.8,0.1-2.6-0.1
			c-0.8-0.1-1.6-0.2-2.3-0.4c-0.7-0.1-1.3-0.2-1.8-0.1c-0.5,0.1-0.9,0.3-1.2,0.7c-0.3,0.4-0.4,1-0.4,2c0,0.7,0.3,1.4,0.9,2
			c0.6,0.7,1.4,1.3,2.2,1.8c0.9,0.5,1.8,1,2.7,1.3c1,0.3,1.8,0.5,2.5,0.5c1.4,0,3-0.1,4.7-0.4c1.7-0.3,3.4-0.5,5.2-0.7
			c1.8-0.2,3.5-0.2,5.2-0.1c1.7,0.1,3.3,0.5,4.7,1.2c-2.1,0.7-4.4,1.3-6.8,2c-2.4,0.6-4.8,1-7.3,1.2c-2.5,0.2-4.9,0.1-7.3-0.4
			c-2.4-0.4-4.6-1.4-6.7-2.8c-1.4-0.7-2.3-1.5-2.8-2.6c-0.5-1-0.6-2-0.4-3.1c0.2-1.1,0.6-2.1,1.2-3.1c0.6-1,1.3-1.9,2-2.6
			c0.7-2.1,1.7-3.9,3-5.3c1.3-1.4,2.7-2.7,4.3-3.8c1.6-1,3.2-2,4.9-2.7c1.7-0.8,3.2-1.5,4.6-2.2c1.4,0,2.7,0,3.7,0.1
			c1.1,0.1,2,0.3,2.9,0.6c0.9,0.4,1.7,0.9,2.4,1.7C412-105.5,412.7-104.4,413.4-103z M401.7-102.9c-0.9,0-2,0.2-3.3,0.6
			c-1.3,0.4-2.5,1-3.7,1.7c-1.2,0.7-2.2,1.5-3,2.4c-0.8,0.9-1.2,1.8-1.2,2.7c1.9,0,3.7,0,5.6-0.1c1.8-0.1,3.6-0.3,5.2-0.8
			c1.6-0.5,3.1-1.2,4.5-2.2c1.3-1,2.5-2.4,3.4-4.3c0-0.9-0.2-1.5-0.6-1.6c-0.4-0.1-1,0-1.7,0.2c-0.7,0.2-1.5,0.5-2.4,0.9
			C403.6-103.1,402.7-102.9,401.7-102.9z"/>
		<path class="st17" d="M436.8-88.5c0.8-2.2,1.4-4.4,1.9-6.5c0.5-2.1,1.1-4.1,1.8-6c0.7-1.8,1.7-3.5,2.9-4.9
			c1.2-1.4,2.9-2.5,5.1-3.3c0.8,0,1.4,0.2,1.8,0.5c0.4,0.3,0.8,0.8,1.2,1.4c0.4,0.6,0.8,1.2,1.2,1.9c0.4,0.7,1,1.4,1.7,2.1
			c0.7,2.2,1.1,4.3,1.3,6.5c0.1,2.2,0.2,4.3,0.2,6.3c0,2,0.1,3.9,0.2,5.7c0.1,1.8,0.6,3.4,1.3,4.9c0,0.6-0.2,1.1-0.4,1.5
			c-0.2,0.4-0.5,0.7-0.8,1c-0.4,0.3-0.9,0.4-1.7,0.4c-1-1.4-1.7-3-2.1-4.6c-0.4-1.6-0.7-3.2-0.8-4.9c-0.1-1.6-0.2-3.2-0.1-4.8
			c0.1-1.6,0-3.1-0.1-4.6c-0.1-1.5-0.4-2.8-0.8-4.1c-0.4-1.3-1.1-2.4-2.1-3.4c-1.5,0.5-2.6,1.2-3.5,2.1c-0.8,0.9-1.5,2-2,3.2
			c-0.5,1.2-0.8,2.5-1.1,3.8c-0.2,1.4-0.4,2.7-0.6,4.1c-0.2,1.4-0.4,2.7-0.6,3.9c-0.2,1.3-0.6,2.4-1,3.4c-1.5-0.5-2.7-1.2-3.8-2.2
			c-1-0.9-2-2-2.8-3.3c-0.8-1.3-1.6-2.6-2.3-4.1c-0.7-1.5-1.5-3-2.3-4.6c-0.8-1.6-1.7-3.2-2.8-4.7c-1-1.6-2.3-3.1-3.8-4.6
			c-0.5,1.5-0.9,3-1.1,4.6c-0.2,1.6-0.4,3.2-0.5,4.8c-0.1,1.6-0.2,3.2-0.3,4.8c-0.1,1.6-0.3,3.1-0.5,4.6c-0.3,1.4-0.7,2.8-1.2,4.1
			c-0.5,1.3-1.3,2.4-2.3,3.4v-2.8c0.7-2.2,1.2-4.6,1.3-7c0.1-2.5,0.3-4.9,0.5-7.3c0.2-2.4,0.5-4.6,1.1-6.7c0.5-2.1,1.5-3.9,3-5.4
			c1.5,0,2.7,0.4,3.8,1.1c1,0.7,1.9,1.7,2.7,2.9c0.8,1.2,1.4,2.5,2,4c0.6,1.5,1.2,3,1.8,4.5c0.6,1.5,1.2,3,1.9,4.4
			C435-90.7,435.8-89.5,436.8-88.5z"/>
	</g>
	<polygon class="st37" points="331.7,380.9 325.5,379 321.4,381.6 325.2,386.6 329.7,385.6 	"/>
	<polygon class="st38" points="359.1,354.8 364.2,354.5 368.2,354.2 365.7,356.1 360.8,356.1 	"/>
	<path class="st12" d="M295.2,427.2c0,0,4.6-1.3,5.6-2c1-0.7,2.7-3,3.7-3.1c-0.9,0.9-1.4,1.6-1.7,3.5c-0.3,1.9,0,2.1-0.6,2.1
		c-0.5,0-4.3,0.1-4.3,0.1L295.2,427.2z"/>
	<polygon class="st38" points="278.4,358.4 286.5,357.8 296.4,356.4 289.5,359.8 284.4,359.7 	"/>
	<path class="st5" d="M295.2,427.2c0,0,5.6,0.4,7.8,0c2.1-0.4,4.7-3.3,8-3.3c3.3,0,7.8,1.9,10.1,2.3c2.3,0.4-7.5-0.5-7.5-0.5
		s-4.7,0.9-5.7,1.7c-1,0.7-4.6,1.7-5.4,1.7c-0.8,0-1.8,0.4-1.8,0.4L295.2,427.2z"/>
	<path class="st5" d="M328.4,427.1l7.3-1.9c0,0,6.4-1.1,7.7-0.4c1.3,0.7,6.1,3.4,6.8,3.7c0.7,0.3,6.6-0.9,6.6-0.9s-5.6,2.5-6.2,2.2
		c-0.7-0.3-5.8-2.7-5.8-2.7s-6.8,0.1-8.3-0.3C335,426.3,328.9,427.1,328.4,427.1z"/>
	<path class="st4" d="M323.9,395.9l8.3,0.4l4.4,3.7l8.2-1.5c0,0-3.5,2.9-4.5,3.2c-3.7,1-8.4-2.8-8.4-2.8L323.9,395.9z"/>
	<path class="st5" d="M322.5,426.3c0,0,3.9,1,4.6,0.7C327.3,427.1,324.3,427.3,322.5,426.3z"/>
	<polygon class="st39" points="323,431.9 331.5,431.6 335.4,431.9 329.9,433.6 	"/>
	<polygon class="st40" points="316.1,405.5 307,404.5 310.4,406.7 303.4,409.1 308.1,410.4 310.4,412.2 309.8,408.7 312.7,409.6 
		315.4,408.1 	"/>
	<path class="st40" d="M302.5,410.9l3.8,2.1l-3.4,3.7c0,0-3-4-2.4-3.3c0.6,0.7-1.5,4.5-1.5,4.5l-3.9,1.3l-4.5-0.5l0-2.7l4.8,1.1
		l-2.3-2.9l4,0.8l1-3.2L302.5,410.9z"/>
	<polygon class="st40" points="286.3,419.5 291.1,421.2 287.8,422.5 288.4,424.9 285.6,424.9 282.8,427.6 281.7,423.4 283.5,423.9 
		284.1,420.8 285.7,421.5 	"/>
	<polygon class="st40" points="339.8,403.5 343.3,407.1 340.2,406.1 	"/>
	<polygon class="st40" points="335.7,409.8 341.5,408.4 343.5,410 348.7,410.6 346.9,412.9 353.1,412.4 356.2,414.4 350.5,414.2 
		344.6,414.2 343.3,412 340.5,410.9 	"/>
	<polygon class="st40" points="352.5,415.5 360,416.1 358.5,418.3 364.1,419.9 364.8,422 366.6,424.6 360.2,422.2 361.7,420.4 
		357.6,419.8 355.8,417.3 352.6,417.9 	"/>
	<path class="st4" d="M311.1,416.7c0,0,11.3-1,12.7-0.1c1.4,0.9,2.1,2.1,2.1,2.1s2.8-2.8,5.7-2.5c3,0.2,12.4,1.9,14.1,2.4
		c-3.8-1.7-13.6-4.1-16.3-3.2c-2.7,0.8-3.7,1.2-3.7,1.2s-1.9-1.4-4.3-1.6C318.9,414.7,311.1,416.7,311.1,416.7z"/>
	<path class="st4" d="M313.2,395.8c0,0-0.7,3.8-1.9,4c-0.8,0.2,7.4-2.1,11.8-2.6c1.6-0.2-0.9-1.2-0.6-1.2
		C323.7,395.7,313.2,395.8,313.2,395.8"/>
	<path class="st5" d="M349,387.3c0,0,2.1,4.4-1.1,7.9c-3.1,3.5-10.8,4.6-11.9,4.4c1.3,0.9,10.9-0.8,12.7-3.8
		C350.7,392.8,350.8,389.2,349,387.3z"/>
	<polygon class="st4" points="328.6,399.1 327.8,404.9 328,412.7 332.1,413.4 337.1,404.4 332,403 	"/>
	<path class="st40" d="M313.4,443.4l-2.4,2.6l5.2-0.1l0.9,2.3l3.7-2.5c0,0,3.4,4.3,3,5c-0.5,0.7,0.9-6.7,0.9-6.7l-1.9,0.8l-2.8-2.1
		l-1.1,1.7L313.4,443.4z"/>
	<polygon class="st40" points="326.2,444.1 326.8,449.3 328,446.2 331.1,448.8 332.5,447.1 337,447.1 338.5,445.1 340.4,447.4 
		340.7,445.9 342.7,445.1 340.2,444.7 338.7,443.2 337.2,445.1 332.8,445 331.4,446.3 328.8,444.3 327.6,445.4 	"/>
	<path class="st4" d="M316.3,338.1c0,0,2.1,9.1,0.6,12.8c-1.6,3.6-6.6,9.5-6.6,9.5l-9.6,4.4l2.4-4.9l-7.5,3.7l-8.1,1l7.4-3.8
		l13.5-7.3l4.7-5.3l0-5.2l2.1,1.1L316.3,338.1z"/>
	<path class="st5" d="M298.9,360.1c0,0-11.6,7.2-22.9,5.4C285.7,369.8,298.9,360.1,298.9,360.1z"/>
	<polygon class="st40" points="303.1,480.4 307.3,477.9 307.2,480.9 310.7,482.4 306.6,484.2 305.2,481.2 	"/>
	<polygon class="st40" points="311,479 314.7,476.4 316,479.6 313.4,479.2 	"/>
	<polygon class="st40" points="313.1,483.4 313.3,487.4 315.7,486.1 317.5,488.3 319.2,486 323.1,490.4 326.5,486.3 328.9,488.2 
		331.1,485.2 335.1,488.6 334.3,482.3 333,483.5 330.1,483.2 328.2,486.1 323.6,483.2 322.3,488 319.4,484.4 317.9,485.5 
		315.8,484.1 316,482.5 	"/>
	<polygon class="st40" points="336.9,481.4 337.8,484 339.6,482.4 342.6,485.8 343.6,482.6 346.9,484.7 347,480.6 350.8,482.8 
		350.9,474.9 349.2,479.2 346.5,478.2 345.2,481 342,481.6 339.4,479.6 337.6,481.9 	"/>
	<polygon class="st40" points="328.5,479.9 330.9,477 332.5,479.1 334.4,476.4 333.3,480.1 331.4,479.4 329.8,480.7 	"/>
	<polygon class="st40" points="337.9,486.2 339.6,489.3 340.2,485.9 	"/>
	<polygon class="st40" points="321.4,481.8 321.4,477.7 324.2,480.2 325.6,479.3 325.7,481.2 322.6,480.2 	"/>
	<polygon class="st40" points="339.4,477.6 339.5,474.2 343.1,476.6 346,474.1 343.7,477.7 341,477.1 	"/>
	<polygon class="st40" points="319.7,473.9 321.4,470.9 324.7,474.6 326,472.6 325.5,475.8 322.8,473.9 	"/>
	<polygon class="st40" points="310.5,467 310.3,471.3 307.2,470 	"/>
	<path class="st5" d="M315.8,254.8c0,0-23.4,1-25.8,3.5c-2.3,2.6-22.7,5.7-40.9,36.1c-11.1,41.9-10.2,96.7-7.7,112.1
		c0,0,4.5,29.5,22.7,49.5c-18.9-17.3-26.4-47.4-26.3-52.5c0,0-1-90.1,8.9-110.3c8.9-18.2,20.7-31.6,40.6-37.4
		C307.4,250.1,315.8,254.8,315.8,254.8z"/>
	<path class="st5" d="M320.9,255.3c0,0,22.6,0.9,30.6,3.7c8.1,2.8,13.3,5.9,15,7.1c1.7,1.1,11.6,13.3,14.5,19
		c2.9,5.7,7.6,17,9.4,24.7c1.9,7.8,6.6,41.7,6.9,48.3c0.3,6.6,1,34.6,0,41.6c-1,6.9-1.3,15.7-4.4,24.3c-3.1,8.5-10.3,24.3-12.9,28.6
		c-2.6,4.3-19,23-19,23s16.9-16.4,20.3-21.8c3.3-5.4,11.3-22.9,13.5-29.6c2.2-6.7,4.3-20.7,4.5-26.1c0.2-5.4,1.6-32.8,0.9-40.2
		c-0.8-7.4-4.2-39.6-6.9-48.3c-2.7-8.7-5-19.6-8.9-26.4c-3.9-6.8-12.2-16.5-15.8-18.8c-3.7-2.4-11.7-7.5-18.3-8.6
		C343.9,254.6,320.9,255.3,320.9,255.3z"/>
	<path class="st5" d="M248.9,432.6l-3.2,64.9C245.7,497.6,256.2,458.8,248.9,432.6z"/>
	<path class="st5" d="M380.5,452.9c0,0-4.9,49.9-4.9,52.1C375.6,507.2,382.8,459,380.5,452.9z"/>
	<path class="st6" d="M235.4,475.4c0,0-13.4,4.2-17.1,11.5c-10.7,1.1-15.7,6.1-20.3,7.3c0,0-18.8,11-18.9,14.8
		c0,3.8,18.3,9,27.4,25.6c9,16.5,17.8,36.7,17.5,39.9c-0.4,3.2,44.9-11.8,45.8-11.6c0.9,0.2-27-49.8-29.1-54
		C240.8,508.9,232.6,482.6,235.4,475.4z"/>
	<path class="st5" d="M235.4,475.4c0,0-13.6,4.3-17.1,11.5C223.3,483.9,235.4,475.4,235.4,475.4z"/>
	<path class="st5" d="M217.3,487c0,0-23.6,4.5-38,21.1C192.8,498.9,217.3,487,217.3,487z"/>
	<path class="st5" d="M235.1,476.2c0,0,1,24.5,6,33.7c5,9.2,28.2,52.8,28.8,53.1c0.6,0.3-32.6-49.5-32.7-51.7
		C237,509,231.6,479.6,235.1,476.2z"/>
	<path class="st5" d="M229.3,490.8c0,0-0.2,26.1,3.8,28.4c4.1,2.3,14,21.1,14,21.1s-18.6-21-18.4-23.9
		C229,513.4,229.3,490.8,229.3,490.8z"/>
	<path class="st5" d="M253.7,547.9c0,0,6.1,8.8,5.1,13C257.8,565.1,253.7,547.9,253.7,547.9z"/>
	<path class="st5" d="M380.1,453.8c0,0,12.3,3.8,13.2,3.3c0.5-0.2,8.6,17.8,17.6,34.5c8.3,15.4,17.6,29.6,18.2,30.5
		c0.6,0.9-7.6-14.6-16.9-31.1c-9.4-16.7-16.7-35.3-17.1-35.3L380.1,453.8z"/>
	<path class="st5" d="M379.8,488.8c0,0,8,10.1,8.8,13.8C389.3,506.2,380.3,490.7,379.8,488.8z"/>
	<path class="st5" d="M391.7,460.1c0,0,13.9,33.1,17.2,34.9C412.3,496.8,391.7,460.1,391.7,460.1z"/>
	<path class="st15" d="M241.9,292.8c0,0,14.6-77.3,109-80C262.6,203.6,241.4,288.8,241.9,292.8z"/>
	<path class="st18" d="M237,290.5c0,0-1.1-43.8,13.4-52.6C232.7,242,237,290.5,237,290.5z"/>
	<path class="st5" d="M234.1,368c0,0-13.3-3.9-6.3,19.6c7,23.5,7,17,8,21.4c1,4.4-6.4,9.4-1,15.6c5.3,6.2,13.8,5.4,13.8,5.4
		s-23.5,3.8-14.8-20.9c-3-8.2-16-29.3-8.9-38.2C230.1,364.2,234.1,368,234.1,368z"/>
	<path class="st5" d="M400.1,364.4c0,0,2.3-1.6,3.3-0.2c0.9,1.4,1.7,21.5,1.4,22.7c-0.2,1.2-6.8,17.6-6.8,17.6s8.7-17.7,8.8-18.4
		c0.2-0.7-1-23.4-1.9-24C404,361.5,401.1,362.5,400.1,364.4z"/>
	<path class="st5" d="M397.1,413.7c0,0,8.7,5.8-3.8,12.8C409.4,419.6,397.1,413.7,397.1,413.7z"/>
	<path class="st8" d="M233.5,288.6c0,0-19.7-3.5-10.5-26.4C218.1,283.4,233.5,288.6,233.5,288.6z"/>
	<path class="st8" d="M293.2,252.5c0,0,50.6-24.7,75.3,5.7c24.4,29.9,38.3,12.6,39.2,11.3c0.9-1.3-13.7,16.6-37-12.6
		C343.3,222.4,293.2,252.5,293.2,252.5z"/>
</g>
</svg>
